<svg xmlns="http://www.w3.org/2000/svg" xmlns:xlink="http://www.w3.org/1999/xlink" id="Layer_1" x="0px" y="0px" viewBox="0 0 17 18" style="enable-background:new 0 0 17 18;" xml:space="preserve"><style type="text/css">	.st0{fill:#1C75BC;}</style><g>	<g>		<path class="st0" d="M11.41,9.04c0,0.1-0.04,0.2-0.11,0.28l-3.24,3.24c-0.15,0.15-0.4,0.15-0.55,0c-0.15-0.15-0.15-0.4,0-0.55   l2.96-2.96L7.5,6.08c-0.15-0.15-0.15-0.4,0-0.55c0.15-0.15,0.4-0.15,0.55,0l3.24,3.24C11.37,8.84,11.41,8.94,11.41,9.04"></path>	</g>	<g>		<path class="st0" d="M8.5,17.07c-4.45,0-8.07-3.62-8.07-8.07c0-4.45,3.62-8.07,8.07-8.07c4.45,0,8.07,3.62,8.07,8.07   C16.57,13.45,12.95,17.07,8.5,17.07z M8.5,1.93C4.6,1.93,1.43,5.1,1.43,9c0,3.9,3.17,7.07,7.07,7.07c3.9,0,7.07-3.17,7.07-7.07   C15.57,5.1,12.4,1.93,8.5,1.93z"></path>	</g></g></svg>