<svg xmlns="http://www.w3.org/2000/svg" xmlns:xlink="http://www.w3.org/1999/xlink" id="Layer_1" x="0px" y="0px" viewBox="0 0 90.05 90.05" style="enable-background:new 0 0 90.05 90.05;" xml:space="preserve"><style type="text/css">	.st0{fill:#FFFFFF;}</style><g>	<g>		<defs>			<path id="SVGID_1_" d="M0,45.03c0,24.87,20.16,45.03,45.03,45.03c24.87,0,45.02-20.16,45.02-45.03C90.05,20.16,69.89,0,45.03,0    C20.16,0,0,20.16,0,45.03"></path>		</defs>		<use xlink:href="#SVGID_1_" style="overflow:visible;fill:#1C75BC;"></use>		<clipPath id="SVGID_00000140720251787417308840000015280120747624882328_">			<use xlink:href="#SVGID_1_" style="overflow:visible;"></use>		</clipPath>	</g>	<g>		<path class="st0" d="M62.73,34.86c-0.17,0.75-0.38,1.48-0.8,2.14c-0.68,1.08-1.55,1.97-2.59,2.7c-3.12,2.17-6.24,4.34-9.36,6.5   c-0.88,0.61-1.77,1.21-2.65,1.81c-0.16,0.11-0.34,0.2-0.51,0.29c-1.18,0.66-2.37,0.68-3.54,0c-0.65-0.38-1.28-0.77-1.9-1.19   c-3.53-2.46-7.06-4.92-10.59-7.39c-1.24-0.86-2.25-1.95-2.96-3.28c-0.75-1.4-0.64-2.8,0.22-4.12c0.5-0.77,1.26-1.12,2.16-1.19   c0.19-0.01,0.39-0.01,0.59-0.01h28.51c1.84,0,2.95,0.86,3.41,2.64c0,0.02,0.02,0.04,0.04,0.06V34.86z"></path>		<path class="st0" d="M62.73,55.32c-0.2-0.19-0.4-0.38-0.59-0.57c-2.66-2.65-5.31-5.31-7.97-7.96c-0.08-0.08-0.19-0.14-0.31-0.23   c0.16-0.12,0.24-0.19,0.34-0.25c2.1-1.44,4.21-2.86,6.28-4.33c0.79-0.56,1.5-1.24,2.25-1.86V55.32z"></path>		<path class="st0" d="M28.45,58.16c3.35-3.35,6.67-6.67,10.03-10.03c0.36,0.26,0.74,0.53,1.12,0.81c1.06,0.79,2.17,1.5,3.42,1.99   c1.39,0.54,2.75,0.52,4.14-0.04c1.19-0.47,2.25-1.15,3.27-1.91c0.39-0.29,0.78-0.57,1.15-0.83c3.34,3.35,6.67,6.68,10.02,10.02   c-0.47,0.44-1.08,0.68-1.76,0.73c-0.14,0.01-0.28,0.01-0.42,0.01c-9.58,0-19.17,0-28.75,0C29.83,58.93,29.09,58.72,28.45,58.16"></path>		<path class="st0" d="M36.13,46.47c-2.94,2.94-5.86,5.86-8.77,8.77V40.18c0.02,0,0.05-0.01,0.06,0c1.52,1.59,3.47,2.61,5.23,3.88   C33.81,44.89,34.98,45.68,36.13,46.47"></path>	</g></g></svg>