<svg xmlns="http://www.w3.org/2000/svg" xmlns:xlink="http://www.w3.org/1999/xlink" id="Layer_1" x="0px" y="0px" viewBox="0 0 185.97 185.97" style="enable-background:new 0 0 185.97 185.97;" xml:space="preserve"><style type="text/css">	.st0{fill:#1C75BC;}	.st1{fill:#FFFFFF;}</style><g>	<circle class="st0" cx="92.98" cy="92.98" r="92.98"></circle>	<g>		<path class="st1" d="M129.11,94.97c-0.74,0-1.5,0.09-2.23-0.02c-2.47-0.36-4.07-2.33-3.96-4.83c0.02-0.49-0.09-0.75-0.52-1.01   c-1.43-0.87-2.09-2.21-2.05-3.86c0.02-0.64-0.14-1.02-0.71-1.38c-1.14-0.72-1.76-1.84-1.85-3.19c-0.07-1.25-0.05-2.51-0.1-3.76   c-0.14-3.83-1.35-7.33-3.31-10.59c-1.31-2.18-2.37-4.47-2.74-7.01c-0.78-5.34,0.63-10.08,4.15-14.15c3.87-4.48,8.9-6.5,14.72-6.04   c8.97,0.71,14.4,7.14,15.88,14.05c1.01,4.73,0.01,9.1-2.52,13.18c-1.38,2.23-2.54,4.59-2.89,7.23c-0.25,1.85-0.42,3.72-0.44,5.59   c-0.02,2.07-0.52,3.82-2.37,4.99c-0.13,0.08-0.21,0.36-0.21,0.54c0,1.92-0.68,3.47-2.33,4.56c-0.16,0.11-0.26,0.42-0.26,0.64   c0.03,3.12-1.91,5.1-5.01,5.1c-0.43,0-0.85,0-1.28,0C129.11,95,129.11,94.98,129.11,94.97z M133.91,75.54   c0.1,0.03,0.14,0.05,0.18,0.05c0.64,0.01,1.28,0,1.91,0.04c0.51,0.04,0.63-0.19,0.7-0.65c0.5-3.47,1.34-6.83,3.18-9.88   c0.79-1.31,1.6-2.64,2.14-4.05c1.26-3.3,0.92-6.6-0.42-9.81c-3.22-7.73-13.02-10.58-20.01-5.83c-4.79,3.25-7.07,9.06-5.71,14.49   c0.46,1.82,1.43,3.4,2.34,5.01c1.54,2.71,2.61,5.57,3.09,8.65c0.11,0.68,0.23,1.37,0.34,2.06c0.75,0,1.43-0.02,2.11,0.01   c0.51,0.02,0.64-0.16,0.64-0.66c-0.02-3.77-0.02-7.53-0.02-11.3c0-0.36,0-0.71,0-1.13c-0.52,0-0.96,0-1.4,0   c-1.66-0.01-3.08-0.62-4.25-1.76c-1.82-1.78-2.14-4.67-0.79-6.88c1.36-2.23,4.04-3.25,6.54-2.48c2.57,0.79,4.08,3.12,3.98,6.15   c-0.03,0.92-0.03,0.92,0.86,0.92c0.14,0,0.28-0.03,0.4-0.04c0.09-1.04,0.07-2.05,0.28-3.01c0.62-2.79,3.35-4.59,6.27-4.22   c2.73,0.35,4.92,2.88,4.87,5.62c-0.06,2.94-2.25,5.39-5.07,5.62c-0.71,0.06-1.43,0.01-2.16,0.01   C133.91,66.89,133.91,71.2,133.91,75.54z M129.77,62.47c-0.32,0-0.59,0-0.86,0c-0.37,0-0.5,0.17-0.5,0.56   c0.03,4.06,0.04,8.12,0.07,12.18c0,0.15,0.22,0.39,0.37,0.42c0.29,0.06,0.61-0.01,0.92-0.02   C129.77,71.19,129.77,66.86,129.77,62.47z M136.39,79.78c-0.71,0-1.39,0-2.06,0c-4,0.01-8,0.01-12,0.03   c-0.18,0-0.36,0.18-0.54,0.27c0.18,0.21,0.34,0.43,0.54,0.61c0.06,0.05,0.21,0.01,0.31,0.01c4.32,0,8.64,0,12.95,0   C136.44,80.7,136.46,80.68,136.39,79.78z M133.85,84.82c-3.04,0-6.04,0-9.04,0.01c-0.16,0-0.46,0.25-0.44,0.3   c0.08,0.24,0.21,0.48,0.4,0.65c0.09,0.09,0.33,0.03,0.5,0.03c2.57,0,5.15,0,7.72,0C133.91,85.81,133.91,85.81,133.85,84.82z    M124.42,57.4c0.01,0,0.02,0,0.03,0c-0.04-0.34-0.04-0.68-0.12-1c-0.19-0.8-0.91-1.26-1.72-1.17c-0.8,0.09-1.45,0.79-1.48,1.59   c-0.03,0.76,0.5,1.45,1.29,1.58c0.52,0.08,1.06,0.09,1.58,0.05c0.15-0.01,0.33-0.28,0.41-0.46   C124.48,57.81,124.42,57.6,124.42,57.4z M133.89,58.54c0.78-0.07,1.49-0.06,2.16-0.2c0.75-0.16,1.18-1.01,1.02-1.81   c-0.16-0.79-0.9-1.34-1.73-1.28c-0.82,0.06-1.41,0.63-1.44,1.42C133.87,57.24,133.89,57.81,133.89,58.54z M131.29,89.91   c-1.36,0-2.69-0.01-4.02,0.02c-0.12,0-0.34,0.3-0.33,0.44c0.03,0.37,0.26,0.57,0.69,0.56c0.95-0.03,1.91-0.01,2.86-0.01   C131.25,90.91,131.33,90.82,131.29,89.91z"></path>		<path class="st1" d="M35.63,130.89c0.17-0.53,0.27-0.92,0.43-1.29c0.47-1.09,0.99-2.16,1.45-3.26c0.1-0.23,0.09-0.58-0.01-0.82   c-0.73-1.85-1.49-3.69-2.27-5.53c-0.1-0.24-0.37-0.47-0.61-0.57c-1.08-0.45-2.18-0.84-3.26-1.28c-1.29-0.52-1.71-1.15-1.72-2.53   c0-2.43,0-4.85,0-7.28c0-1.35,0.44-1.99,1.68-2.48c1.11-0.43,2.23-0.83,3.32-1.3c0.26-0.11,0.49-0.43,0.61-0.7   c0.75-1.75,1.45-3.53,2.21-5.28c0.16-0.36,0.21-0.63,0.03-1c-0.53-1.13-1.02-2.29-1.52-3.44c-0.42-0.97-0.24-1.81,0.52-2.55   c1.86-1.84,3.7-3.71,5.55-5.55c0.7-0.7,1.52-0.9,2.45-0.48c1.12,0.5,2.25,1,3.37,1.52c0.38,0.18,0.69,0.15,1.08-0.01   c1.78-0.75,3.58-1.43,5.37-2.18c0.25-0.1,0.51-0.36,0.62-0.61c0.48-1.13,0.91-2.29,1.36-3.44c0.41-1.06,1.17-1.56,2.31-1.55   c2.51,0.01,5.02,0.03,7.54,0c1.2-0.01,1.98,0.48,2.38,1.62c0.37,1.04,0.8,2.06,1.17,3.1c0.18,0.5,0.46,0.78,0.98,0.97   c1.7,0.65,3.39,1.36,5.06,2.09c0.48,0.21,0.86,0.22,1.32-0.02c1-0.51,2.03-0.98,3.06-1.44c1.14-0.5,1.83-0.35,2.71,0.53   c1.75,1.77,3.48,3.57,5.26,5.3c0.95,0.92,1.21,1.88,0.6,3.08c-0.5,0.98-0.91,2.01-1.39,3.01c-0.18,0.38-0.14,0.69,0.03,1.08   c0.77,1.77,1.48,3.56,2.24,5.34c0.11,0.25,0.36,0.52,0.62,0.63c1.09,0.47,2.21,0.88,3.32,1.3c1.09,0.4,1.62,1.14,1.61,2.32   c-0.03,2.55-0.02,5.11,0,7.66c0.01,1.09-0.46,1.83-1.47,2.22c-1.11,0.43-2.21,0.88-3.33,1.27c-0.46,0.16-0.65,0.45-0.82,0.88   c-0.69,1.73-1.44,3.44-2.13,5.17c-0.12,0.3-0.16,0.71-0.05,1c0.45,1.14,0.97,2.27,1.48,3.39c0.44,0.95,0.27,1.77-0.46,2.5   c-1.88,1.88-3.76,3.77-5.64,5.65c-0.77,0.76-1.62,0.91-2.62,0.43c-1.09-0.53-2.2-1.02-3.32-1.48c-0.24-0.1-0.58-0.09-0.82,0   c-1.85,0.73-3.7,1.49-5.53,2.27c-0.22,0.09-0.45,0.32-0.54,0.55c-0.47,1.14-0.91,2.29-1.33,3.45c-0.38,1.04-1.11,1.57-2.22,1.57   c-2.55,0-5.11,0-7.66,0.01c-1.19,0-1.96-0.56-2.37-1.66c-0.42-1.11-0.83-2.23-1.29-3.33c-0.1-0.25-0.37-0.49-0.63-0.6   c-1.81-0.78-3.64-1.53-5.47-2.26c-0.22-0.09-0.54-0.12-0.75-0.03c-1.2,0.49-2.38,1.02-3.57,1.55c-0.9,0.4-1.7,0.26-2.4-0.43   c-1.92-1.9-3.86-3.79-5.75-5.72C36.03,131.86,35.86,131.3,35.63,130.89z M48.6,132.31c0.36,0.13,0.77,0.2,1.1,0.4   c2.12,1.29,4.4,2.21,6.79,2.87c0.88,0.24,1.44,0.76,1.76,1.6c0.38,1.01,0.77,2.02,1.2,3.02c0.08,0.19,0.37,0.42,0.57,0.43   c1.55,0.02,3.11-0.01,4.66-0.01c0.35,0,0.53-0.1,0.65-0.44c0.38-1.06,0.81-2.1,1.23-3.14c0.29-0.72,0.8-1.2,1.55-1.39   c2.39-0.6,4.65-1.5,6.74-2.81c0.89-0.56,1.74-0.53,2.65-0.05c0.88,0.46,1.81,0.85,2.71,1.28c0.32,0.15,0.56,0.15,0.84-0.13   c1.08-1.11,2.21-2.19,3.28-3.31c0.14-0.14,0.18-0.5,0.1-0.69c-0.42-1.02-0.89-2.02-1.34-3.03c-0.37-0.81-0.37-1.58,0.11-2.37   c1.26-2.11,2.18-4.37,2.8-6.74c0.21-0.8,0.71-1.33,1.49-1.61c1-0.36,1.98-0.78,2.98-1.13c0.38-0.14,0.51-0.33,0.51-0.74   c-0.02-1.55-0.02-3.11,0-4.66c0-0.37-0.15-0.52-0.47-0.64c-1.01-0.38-2.02-0.79-3.03-1.18c-0.78-0.29-1.28-0.82-1.49-1.62   c-0.64-2.39-1.53-4.68-2.8-6.81c-0.44-0.73-0.45-1.48-0.09-2.25c0.45-0.98,0.9-1.97,1.3-2.98c0.08-0.2,0.05-0.57-0.09-0.72   c-1.09-1.16-2.21-2.3-3.36-3.41c-0.14-0.14-0.5-0.18-0.7-0.1c-1,0.41-1.99,0.85-2.97,1.32c-0.89,0.42-1.69,0.34-2.54-0.15   c-1.97-1.15-4.03-2.12-6.27-2.62c-1.09-0.24-1.73-0.89-2.09-1.92c-0.33-0.94-0.7-1.87-1.1-2.78c-0.09-0.2-0.37-0.43-0.57-0.44   c-1.53-0.03-3.06,0.01-4.6,0c-0.41,0-0.6,0.16-0.74,0.53c-0.36,0.98-0.77,1.93-1.13,2.91c-0.31,0.84-0.87,1.38-1.74,1.61   c-2.44,0.64-4.75,1.58-6.92,2.88c-0.61,0.37-1.23,0.38-1.89,0.08c-1.06-0.49-2.14-0.94-3.21-1.41c-0.27-0.12-0.47-0.15-0.72,0.11   c-1.08,1.12-2.18,2.22-3.29,3.3c-0.27,0.26-0.33,0.49-0.16,0.84c0.47,1,0.88,2.03,1.35,3.03c0.34,0.74,0.31,1.43-0.1,2.13   c-1.28,2.15-2.24,4.43-2.84,6.86c-0.2,0.79-0.69,1.3-1.43,1.59c-1.03,0.4-2.05,0.82-3.09,1.19c-0.36,0.13-0.5,0.28-0.49,0.67   c0.02,1.53,0.02,3.06,0,4.6c-0.01,0.4,0.13,0.62,0.51,0.76c0.92,0.33,1.82,0.73,2.74,1.03c1.03,0.34,1.6,1.01,1.88,2.05   c0.62,2.29,1.52,4.46,2.71,6.51c0.41,0.71,0.46,1.38,0.13,2.12c-0.48,1.06-0.96,2.13-1.4,3.21c-0.07,0.17-0.05,0.48,0.06,0.6   c1.09,1.11,2.21,2.19,3.3,3.29c0.33,0.33,0.63,0.32,1.02,0.12c0.92-0.45,1.85-0.86,2.79-1.26   C47.81,132.54,48.18,132.45,48.6,132.31z"></path>		<path class="st1" d="M140.82,118.78c-0.35,0.86-0.6,1.65-0.99,2.37c-0.41,0.75-0.39,1.37,0.02,2.12c0.44,0.81,0.69,1.73,1.08,2.58   c0.11,0.24,0.34,0.48,0.57,0.59c0.66,0.29,1.35,0.51,2.02,0.77c0.98,0.37,1.49,1.05,1.48,2.14c-0.02,1.83,0.02,3.66,0.02,5.49   c0,1.13-0.43,1.73-1.48,2.13c-0.79,0.3-1.76,0.42-2.33,0.96c-0.54,0.51-0.67,1.47-0.98,2.23c-0.01,0.02-0.02,0.04-0.03,0.06   c-0.95,1.26-0.66,2.45,0.02,3.75c0.8,1.53,0.65,2.05-0.56,3.28c-1.15,1.16-2.32,2.32-3.49,3.47c-0.92,0.9-1.65,1.08-2.76,0.47   c-1.41-0.78-2.77-1.1-4.19-0.08c-0.13,0.1-0.31,0.17-0.47,0.19c-1.41,0.21-2.11,1.1-2.39,2.42c-0.05,0.25-0.17,0.48-0.27,0.71   c-0.38,0.89-1.05,1.39-2.02,1.4c-1.92,0.01-3.83,0-5.75-0.02c-0.85-0.01-1.47-0.42-1.81-1.19c-0.32-0.74-0.58-1.51-0.91-2.24   c-0.12-0.26-0.36-0.52-0.62-0.63c-1.07-0.48-2.15-0.91-3.24-1.32c-0.22-0.08-0.53-0.08-0.76,0.01c-0.73,0.28-1.43,0.64-2.16,0.94   c-0.85,0.34-1.64,0.21-2.3-0.44c-1.36-1.35-2.72-2.7-4.06-4.06c-0.68-0.69-0.82-1.51-0.42-2.41c0.29-0.64,0.62-1.26,0.84-1.92   c0.1-0.3,0.09-0.7-0.02-0.99c-0.37-1.04-0.79-2.06-1.24-3.06c-0.13-0.29-0.41-0.59-0.69-0.73c-0.65-0.32-1.34-0.54-2.01-0.8   c-0.86-0.33-1.39-0.96-1.4-1.87c-0.03-2-0.01-4,0.03-6c0.02-0.84,0.51-1.43,1.28-1.75c0.71-0.29,1.43-0.54,2.13-0.85   c0.24-0.11,0.48-0.33,0.59-0.56c0.5-1.1,0.97-2.22,1.41-3.34c0.09-0.22,0.06-0.54-0.03-0.77c-0.28-0.73-0.62-1.44-0.93-2.16   c-0.33-0.76-0.26-1.48,0.32-2.07c1.45-1.5,2.92-2.98,4.41-4.44c0.51-0.5,1.16-0.63,1.84-0.36c0.75,0.3,1.49,0.63,2.22,0.97   c0.42,0.2,0.78,0.18,1.21-0.02c0.94-0.44,1.91-0.84,2.89-1.19c0.43-0.15,0.67-0.38,0.8-0.8c0.23-0.71,0.49-1.4,0.76-2.1   c0.29-0.74,0.84-1.22,1.63-1.23c2.11-0.04,4.21-0.05,6.32-0.01c0.84,0.02,1.4,0.53,1.69,1.34c0.24,0.68,0.46,1.37,0.77,2.02   c0.15,0.3,0.45,0.61,0.75,0.75c0.98,0.46,1.98,0.88,3,1.24c0.32,0.11,0.74,0.11,1.06-0.01c0.72-0.26,1.39-0.63,2.1-0.93   c0.81-0.34,1.56-0.18,2.17,0.43c1.4,1.4,2.8,2.8,4.15,4.24C140.43,117.82,140.58,118.33,140.82,118.78z M111.52,145.87   c0.49,0.22,0.92,0.41,1.34,0.59c1.17,0.51,2.29,1.16,3.51,1.48c1.48,0.39,2.49,1.11,2.85,2.63c0.01,0.06,0.06,0.11,0.08,0.17   c0.4,0.99,0.4,0.99,1.47,0.99c0.66,0,1.48,0.22,1.93-0.09c0.47-0.32,0.61-1.15,0.86-1.78c0.35-0.87,0.96-1.37,1.86-1.67   c1.28-0.43,2.6-0.86,3.76-1.54c1.22-0.73,2.28-0.78,3.52-0.14c1.4,0.73,1.43,0.67,2.53-0.43c1.11-1.11,1.11-1.11,0.49-2.52   c-0.1-0.23-0.19-0.47-0.3-0.7c-0.35-0.75-0.24-1.44,0.1-2.19c0.69-1.52,1.31-3.08,1.9-4.64c0.27-0.72,0.66-1.27,1.39-1.55   c0.53-0.21,1.06-0.44,1.61-0.6c0.4-0.12,0.55-0.32,0.55-0.72c-0.01-0.7,0.01-1.4,0.05-2.1c0.02-0.36-0.11-0.55-0.44-0.66   c-0.5-0.17-0.99-0.4-1.49-0.57c-0.97-0.34-1.5-1.01-1.79-1.99c-0.31-1.03-0.66-2.07-1.13-3.04c-1.26-2.6-1.4-2.13,0-5.06   c0.16-0.34,0.1-0.54-0.14-0.77c-0.48-0.45-0.96-0.91-1.4-1.4c-0.36-0.4-0.69-0.55-1.2-0.22c-0.35,0.23-0.78,0.33-1.16,0.53   c-0.93,0.49-1.78,0.38-2.72-0.11c-1.16-0.61-2.36-1.21-3.61-1.55c-1.44-0.39-2.26-1.19-2.69-2.57c-0.37-1.2-0.43-1.19-1.71-1.22   c-1.87-0.05-1.91-0.07-2.49,1.72c-0.36,1.11-1.05,1.68-2.15,2.01c-1.24,0.36-2.49,0.78-3.6,1.42c-1.2,0.7-2.24,0.76-3.47,0.13   c-1.38-0.71-1.41-0.65-2.52,0.44c-1.14,1.12-1.14,1.12-0.5,2.53c0.08,0.17,0.15,0.35,0.24,0.52c0.43,0.8,0.37,1.55-0.05,2.36   c-0.53,1.01-1.2,2.03-1.41,3.12c-0.41,2.08-1.56,3.25-3.55,3.76c-0.2,0.05-0.43,0.4-0.45,0.63c-0.07,0.72-0.08,1.45-0.03,2.17   c0.02,0.23,0.24,0.53,0.45,0.64c0.51,0.26,1.06,0.43,1.6,0.63c0.79,0.3,1.3,0.84,1.52,1.67c0.41,1.61,1.03,3.14,1.9,4.57   c0.42,0.69,0.47,1.38,0.1,2.12c-0.26,0.51-0.45,1.05-0.71,1.57c-0.17,0.35-0.18,0.61,0.13,0.9c0.47,0.43,0.93,0.88,1.35,1.36   c0.39,0.44,0.75,0.46,1.28,0.19C109.93,146.47,110.74,146.19,111.52,145.87z"></path>		<path class="st1" d="M92,48.92c-2.09,0.53-4.2,0.99-6.27,1.61c-5.24,1.56-10.05,4.05-14.51,7.18c-3.57,2.51-6.86,5.37-9.61,8.82   c-3.05,3.82-5.66,7.91-7.67,12.38c-0.36,0.79-0.65,1.62-1.04,2.39c-0.39,0.79-1.2,1.18-2.01,1.07c-0.74-0.09-1.54-0.73-1.63-1.51   c-0.06-0.56,0.06-1.18,0.25-1.72c1.29-3.62,3.18-6.94,5.29-10.14c3.03-4.6,6.62-8.69,10.89-12.17c6.99-5.7,14.88-9.55,23.74-11.37   c0.42-0.09,0.84-0.2,1.42-0.34c-0.53-0.29-0.91-0.47-1.26-0.7c-0.94-0.6-1.26-1.71-0.76-2.61c0.55-1.01,1.62-1.38,2.66-0.84   c2.19,1.14,4.37,2.28,6.52,3.49c1.58,0.89,1.77,2.15,0.55,3.52c-1.6,1.8-3.23,3.56-4.88,5.31c-0.85,0.91-2.03,1-2.85,0.28   c-0.85-0.75-0.9-1.94-0.09-2.91c0.43-0.52,0.91-0.99,1.36-1.48C92.08,49.1,92.04,49.01,92,48.92z"></path>		<path class="st1" d="M148.16,118.15c0.2-0.49,0.36-0.85,0.49-1.22c2.51-7.07,3.48-14.33,2.91-21.82   c-0.55-7.22-2.72-13.93-6.03-20.31c-0.13-0.24-0.25-0.49-0.36-0.75c-0.42-1.03-0.06-2.03,0.91-2.55c0.94-0.5,1.99-0.26,2.53,0.73   c0.89,1.59,1.74,3.21,2.5,4.87c2.35,5.17,3.65,10.63,4.35,16.25c1.12,9.03-0.35,17.7-3.55,26.14c-0.07,0.19-0.12,0.39-0.22,0.75   c0.68-0.33,1.22-0.59,1.76-0.84c0.66-0.3,1.32-0.3,1.94,0.11c1.3,0.87,1.24,2.63-0.17,3.41c-1.45,0.8-2.95,1.5-4.44,2.23   c-0.82,0.4-1.64,0.81-2.48,1.17c-1.34,0.57-2.58-0.04-2.89-1.46c-0.54-2.49-1.04-4.99-1.53-7.49c-0.21-1.11,0.38-2.06,1.34-2.29   c1.12-0.27,2.09,0.25,2.48,1.35C147.88,116.94,147.99,117.48,148.16,118.15z"></path>		<path class="st1" d="M131.18,34.11c0,0.55,0.02,1.1,0,1.66c-0.06,1.23-0.86,2.04-1.99,2.04c-1.16,0-2.02-0.82-2.06-2.05   c-0.04-1.21-0.04-2.42,0-3.63c0.04-1.15,0.84-1.94,1.92-1.99c1.06-0.05,1.9,0.63,2.06,1.75c0.1,0.73,0.08,1.48,0.12,2.22   C131.2,34.11,131.19,34.11,131.18,34.11z"></path>		<path class="st1" d="M149.67,49.61c-0.87,0-1.66-0.57-1.95-1.36c-0.28-0.76-0.12-1.64,0.59-2.11c1.23-0.82,2.51-1.59,3.82-2.28   c0.79-0.42,1.83,0.01,2.33,0.78c0.55,0.84,0.52,1.99-0.28,2.53c-1.29,0.87-2.7,1.59-4.06,2.35   C149.98,49.61,149.78,49.59,149.67,49.61z"></path>		<path class="st1" d="M119.33,38.96c-0.02,0.92-0.48,1.56-1.22,1.84c-0.83,0.32-1.77,0.17-2.24-0.56   c-0.82-1.26-1.58-2.57-2.25-3.91c-0.41-0.82,0.05-1.81,0.87-2.29c0.79-0.47,1.91-0.36,2.42,0.41c0.85,1.29,1.57,2.67,2.33,4.02   C119.33,38.65,119.32,38.88,119.33,38.96z"></path>		<path class="st1" d="M144.76,35.94c-0.03,0.11-0.07,0.39-0.2,0.63c-0.63,1.15-1.27,2.3-1.95,3.42c-0.41,0.67-1.06,1.07-1.87,0.97   c-0.84-0.11-1.48-0.58-1.69-1.43c-0.1-0.39-0.12-0.89,0.05-1.22c0.68-1.29,1.4-2.56,2.19-3.79c0.46-0.71,1.37-0.89,2.16-0.6   C144.23,34.21,144.76,34.97,144.76,35.94z"></path>		<path class="st1" d="M110.68,47.69c-0.01,1.36-1.41,2.35-2.63,1.75c-1.29-0.63-2.54-1.38-3.74-2.17c-0.89-0.58-1.04-1.7-0.5-2.54   c0.58-0.92,1.58-1.24,2.54-0.73c1.14,0.6,2.25,1.27,3.37,1.93C110.38,46.33,110.66,46.94,110.68,47.69z"></path>		<path class="st1" d="M80.38,111.71c-0.23,10.57-8.06,17.64-17.39,18c-10.66,0.42-18.63-7.9-18.74-17.91   c-0.1-9.28,7.05-18.08,18.05-18.11C72.83,93.66,80.35,101.99,80.38,111.71z M76.34,111.69c0.01-7.75-6.22-13.93-14.03-13.94   c-9.1-0.01-13.94,7.79-14.03,13.67c-0.11,7.17,5.53,14.35,14.25,14.28C69.89,125.64,76.28,119.67,76.34,111.69z"></path>		<path class="st1" d="M110.08,131.91c0.03-6.24,4.99-11.17,11.22-11.14c6.18,0.03,11.08,5.01,11.05,11.24   c-0.03,6.21-5,11.05-11.33,11.02C115.08,142.99,110.05,137.9,110.08,131.91z M128.26,131.98c0.16-3.55-2.83-7.12-7.07-7.16   c-3.45-0.03-7.14,3-7.08,7.06c0.05,3.88,3.26,7.1,7.1,7.15C125.04,139.08,128.55,135.48,128.26,131.98z"></path>	</g></g></svg>