<svg xmlns="http://www.w3.org/2000/svg" xmlns:xlink="http://www.w3.org/1999/xlink" id="Layer_1" x="0px" y="0px" viewBox="0 0 185.97 185.97" style="enable-background:new 0 0 185.97 185.97;" xml:space="preserve"><style type="text/css">	.st0{fill:#1C75BC;}	.st1{fill:#FFFFFF;}</style><g>	<g>		<circle class="st0" cx="92.98" cy="92.98" r="92.98"></circle>		<g>			<path class="st1" d="M144.68,62.1c-0.73,0.43-1.42,0.82-2.1,1.22c-2.86,1.66-5.72,3.33-8.59,4.97c-1.79,1.02-3.69,1.73-5.76,1.91    c-0.12,0.01-0.24,0.05-0.37,0.08c5.96,8.05,8.62,16.9,6.67,26.86c-1.94,9.94-7.47,17.31-16.27,22.36    c0.22,0.26,0.44,0.5,0.65,0.77c0.53,0.68,0.6,1.41,0.19,2.17c-0.41,0.75-1.21,1.19-2.06,1c-1.93-0.44-3.85-0.9-5.75-1.44    c-1.23-0.35-1.77-1.57-1.22-2.73c0.82-1.7,1.7-3.37,2.63-5.02c0.58-1.03,1.46-1.34,2.38-1.04c0.99,0.32,1.45,1.06,1.4,2.26    c0,0.1,0.02,0.21,0.03,0.45c0.76-0.49,1.48-0.9,2.15-1.38c5.87-4.19,9.86-9.7,11.57-16.75c1.49-6.16,1.02-12.16-1.44-18.03    c-1.89-4.51-4.81-8.21-8.61-11.23c-0.56-0.44-1.23-0.82-1.91-1.03c-2.51-0.74-5.03-1.48-7.57-2.07c-3.46-0.81-5.41-3.44-5-6.99    c0.01-0.12,0-0.24,0-0.5c-1.04,0.62-1.99,1.19-2.95,1.74c-4.47,2.56-8.93,5.15-13.43,7.65c-1.45,0.81-3.05,1.26-4.72,1.42    c-3.23,0.31-5.83-1.28-6.8-4.14c-1.01-3,0.05-5.93,2.79-7.63c5.22-3.24,10.44-6.48,15.67-9.71c3.07-1.89,6.2-3.7,9.24-5.65    c3.31-2.13,6.74-2.43,10.48-1.35c5.36,1.55,10.78,2.9,16.16,4.38c0.86,0.24,1.46-0.11,2.08-0.54c0.09-0.06,0.08-0.38,0.01-0.53    c-0.24-0.5-0.56-0.97-0.78-1.48c-0.8-1.83-0.3-3.81,1.37-4.9c1.49-0.97,3.04-1.87,4.64-2.66c1.92-0.94,4.11-0.22,5.24,1.69    c1.64,2.77,3.23,5.57,4.82,8.38c2.23,3.94,4.45,7.89,6.65,11.85c0.57,1.02,1.03,2.08,0.71,3.31c-0.31,1.19-0.94,2.11-2.01,2.71    c-1.26,0.7-2.52,1.4-3.78,2.08c-2.38,1.28-4.57,0.66-5.94-1.68C145.01,62.66,144.87,62.41,144.68,62.1z M136.41,47.58    c-0.59,0.33-1.16,0.59-1.67,0.94c-0.85,0.59-1.71,0.61-2.69,0.33c-5.77-1.6-11.55-3.15-17.33-4.73c-2.41-0.66-4.7-0.53-6.88,0.83    c-4.96,3.1-9.93,6.17-14.9,9.23c-3.33,2.05-6.69,4.05-10.01,6.11c-0.44,0.27-0.91,0.65-1.11,1.1c-0.83,1.83,0.45,3.44,2.52,3.29    c1.64-0.12,3.06-0.83,4.44-1.62c4.75-2.73,9.49-5.48,14.21-8.25c2.26-1.32,4.67-1.96,7.28-1.6c1.32,0.18,2.65,0.36,3.93,0.68    c2.68,0.67,5.35,1.44,8.02,2.17c0.75,0.2,1.33,0.62,1.56,1.39c0.45,1.48-0.83,2.88-2.36,2.52c-1.38-0.33-2.73-0.76-4.1-1.11    c-1.81-0.46-3.62-0.9-5.45-1.28c-0.89-0.18-1.66,0.25-1.95,0.91c-0.39,0.89-0.21,1.92,0.53,2.45c0.39,0.28,0.89,0.42,1.35,0.55    c2.81,0.79,5.64,1.51,8.43,2.36c1.82,0.56,3.58,1.35,5.39,1.92c0.76,0.24,1.61,0.29,2.41,0.25c1.49-0.07,2.82-0.72,4.1-1.44    c3.41-1.92,6.79-3.87,10.19-5.81c0.12-0.07,0.22-0.18,0.32-0.27C140.56,54.87,138.5,51.25,136.41,47.58z M141.18,38.24    c-1.24,0.71-2.39,1.39-3.56,2.01c-0.4,0.21-0.4,0.38-0.19,0.74c2.61,4.59,5.22,9.18,7.82,13.78c1.19,2.11,2.38,4.21,3.61,6.39    c1.37-0.76,2.69-1.5,4.01-2.24C148.95,51.99,145.08,45.14,141.18,38.24z"></path>			<path class="st1" d="M51.47,141.96c0.3,0.56,0.59,1.05,0.85,1.56c1.08,2.16,0.47,4.32-1.61,5.55c-1.33,0.78-2.69,1.52-4.07,2.22    c-2.14,1.08-4.2,0.41-5.55-1.81c-1.18-1.95-2.31-3.92-3.43-5.9c-2.59-4.58-5.16-9.17-7.72-13.76c-0.3-0.54-0.59-1.1-0.78-1.69    c-0.56-1.72,0.16-3.57,1.72-4.51c1.27-0.76,2.55-1.51,3.84-2.24c2.45-1.39,4.83-0.69,6.15,1.79c0.12,0.22,0.26,0.43,0.4,0.66    c2.33-1.35,4.6-2.7,6.9-3.99c1.95-1.09,3.89-2.21,5.92-3.13c1.23-0.56,2.61-0.76,3.91-1.12c-5.88-7.97-8.58-16.83-6.6-26.81    c1.97-9.93,7.57-17.25,16.4-22.42c-0.24-0.17-0.47-0.3-0.64-0.48c-0.63-0.65-0.78-1.53-0.42-2.25c0.41-0.81,1.23-1.3,2.13-1.1    c1.95,0.44,3.89,0.9,5.81,1.46c1.22,0.36,1.71,1.6,1.15,2.75c-0.82,1.68-1.7,3.33-2.6,4.96c-0.51,0.92-1.43,1.32-2.26,1.1    c-1-0.27-1.56-1.04-1.56-2.16c0-0.16,0-0.32,0-0.58c-1.92,1.12-3.63,2.33-5.19,3.75c-5.13,4.69-8.17,10.53-9.15,17.37    c-0.89,6.28,0.32,12.21,3.39,17.78c1.47,2.67,3.46,4.87,5.57,7.05c2.21,2.28,5.05,2.98,7.89,3.78c1.28,0.36,2.6,0.59,3.89,0.92    c2.8,0.72,4.77,3.62,4.43,6.51c-0.03,0.22-0.03,0.45-0.06,0.81c0.91-0.55,1.69-1.02,2.48-1.48c4.19-2.45,8.36-4.93,12.59-7.32    c2.34-1.33,4.85-2.21,7.62-2c3.44,0.26,5.98,3.59,5.51,7.02c-0.32,2.34-1.59,3.91-3.53,5.09c-6.89,4.22-13.77,8.46-20.66,12.68    c-1.45,0.89-2.9,1.76-4.37,2.62c-3.06,1.8-6.26,2.09-9.68,1.11c-5.47-1.56-10.98-2.97-16.47-4.48    C52.75,141.01,52.19,141.55,51.47,141.96z M43.25,127.38c1.93,3.39,3.8,6.67,5.66,9.96c0.73,1.3,0.56,1.14,1.61,0.42    c1.32-0.91,2.58-0.91,4.07-0.49c5.66,1.6,11.35,3.11,17.02,4.65c2.37,0.64,4.6,0.37,6.66-1c0.59-0.39,1.17-0.8,1.77-1.17    c5.36-3.3,10.72-6.6,16.08-9.9c2.29-1.41,4.58-2.81,6.87-4.22c0.54-0.33,1.03-0.68,1.21-1.35c0.5-1.87-0.83-3.28-2.85-2.99    c-1.81,0.26-3.38,1.1-4.92,1.99c-4.5,2.6-9,5.21-13.49,7.82c-2.59,1.5-5.35,2.15-8.3,1.5c-3-0.66-5.97-1.43-8.94-2.16    c-0.85-0.21-1.72-0.39-2.53-0.71c-0.98-0.38-1.4-1.51-1.05-2.47c0.39-1.04,1.38-1.6,2.41-1.32c1.37,0.37,2.72,0.79,4.09,1.14    c1.81,0.46,3.61,0.95,5.45,1.27c1.37,0.24,2.29-0.77,2.12-2.12c-0.1-0.77-0.68-1.43-1.53-1.64c-1.35-0.34-2.74-0.57-4.06-1    c-3.21-1.03-6.39-2.14-9.58-3.21c-1-0.34-1.99-0.63-3.09-0.49c-1.82,0.23-3.4,1.03-4.95,1.92c-3,1.72-6,3.44-9,5.16    C43.74,127.1,43.51,127.23,43.25,127.38z M44.74,147.71c1.23-0.69,2.36-1.35,3.52-1.95c0.46-0.24,0.44-0.42,0.22-0.82    c-2.79-4.9-5.57-9.81-8.35-14.72c-0.92-1.63-1.81-3.27-2.7-4.9c-0.24-0.44-0.47-0.57-0.95-0.25c-0.69,0.46-1.46,0.82-2.19,1.23    c-0.42,0.24-0.84,0.5-1.26,0.75C36.95,133.95,40.82,140.8,44.74,147.71z"></path>			<path class="st1" d="M67.69,90.33c-3.36-3.7-2.86-8.44-0.7-11.32c2.74-3.64,7.24-4.33,10.74-2.78c2.16,0.96,3.66,2.6,4.54,4.79    c0.72,1.79,0.72,3.16,0.04,6.53c1.34-0.92,2.73-1.88,4.12-2.83c-3.91-4.87-2.17-10.1,0.69-12.55c3.31-2.85,8.17-2.96,11.49-0.19    c1.95,1.62,2.94,3.74,3.11,6.22c0.17,2.49-0.69,4.68-2.25,6.53c1.4,0.95,2.78,1.88,4.1,2.77c-1.38-5.16,0.03-9.25,5.24-11.51    c3.19-1.38,7.31-0.26,9.55,2.33c0.97,1.12,1.65,2.4,2.01,3.85c0.36,1.44,0.39,2.88,0.01,4.33c-0.37,1.45-1.18,2.64-2.14,3.74    c1,0.62,2.02,1.11,2.88,1.8c3.4,2.69,5.44,6.19,6.04,10.51c0.17,1.21-0.57,2.16-1.77,2.34c-0.3,0.04-0.6,0.07-0.9,0.07    c-7.72-0.02-15.45-0.04-23.17-0.05c-0.82,0-1.63,0.05-2.45,0.04c-1.57-0.02-2.42-0.89-2.28-2.44c0.09-0.97,0.34-1.93,0.53-2.97    c-2.76,0-5.54,0-8.35,0c0.19,0.86,0.38,1.71,0.55,2.57c0.25,1.31-0.14,2.26-1.14,2.64c-0.41,0.16-0.88,0.2-1.32,0.2    c-7.83,0-15.66-0.03-23.49-0.04c-0.77,0-1.55,0.06-2.32,0.04c-1.56-0.03-2.43-1.04-2.22-2.57c0.73-5.3,3.58-9.14,8.21-11.72    C67.21,90.53,67.43,90.44,67.69,90.33z M122.6,100.82c-1.4-4.82-6.34-8.02-11.8-7.71c-4.29,0.25-9.04,4.02-9.64,7.71    C108.3,100.82,115.43,100.82,122.6,100.82z M84.74,100.83c-1.02-3.81-5.2-7.83-10.8-7.76c-5.45,0.07-9.62,4.07-10.53,7.76    C70.53,100.83,77.63,100.83,84.74,100.83z M102.2,92.25c-0.11-0.15-0.25-0.37-0.42-0.56c-4.79-5.61-13.04-5.53-17.79,0.14    c-0.27,0.33-0.24,0.52,0.04,0.81c0.69,0.68,1.4,1.34,1.99,2.1c0.38,0.49,0.78,0.65,1.36,0.64c3.85-0.02,7.69-0.01,11.54-0.02    c0.21,0,0.48-0.09,0.62-0.24C100.43,94.2,101.29,93.25,102.2,92.25z M111.84,79.54c-2.63,0.03-4.73,2.12-4.69,4.64    c0.05,2.74,2.15,4.8,4.87,4.75c2.65-0.05,4.59-2.14,4.56-4.9C116.55,81.65,114.28,79.51,111.84,79.54z M74.09,79.55    c-2.55,0.01-4.74,2.11-4.74,4.55c0,2.69,2.07,4.81,4.68,4.81c2.69,0,4.76-2.06,4.76-4.71C78.78,81.66,76.63,79.53,74.09,79.55z     M97.61,78.74c0.01-2.6-2.05-4.68-4.64-4.7c-2.52-0.02-4.58,2.07-4.68,4.54c-0.1,2.45,1.84,4.81,4.62,4.84    C95.56,83.45,97.6,81.41,97.61,78.74z"></path>			<path class="st1" d="M150.91,57.68c-0.01-0.72-0.67-1.36-1.38-1.35c-0.73,0-1.36,0.64-1.35,1.36c0.01,0.74,0.65,1.37,1.36,1.35    C150.28,59.03,150.93,58.38,150.91,57.68z"></path>			<path class="st1" d="M150.91,57.68c0.01,0.7-0.63,1.34-1.37,1.36c-0.71,0.02-1.35-0.61-1.36-1.35c-0.01-0.73,0.62-1.36,1.35-1.36    C150.24,56.33,150.9,56.97,150.91,57.68z"></path>			<path class="st1" d="M36.37,129.63c-0.75,0.01-1.36-0.57-1.37-1.32c-0.02-0.78,0.57-1.41,1.36-1.43    c0.76-0.02,1.42,0.61,1.43,1.36C37.79,128.99,37.15,129.62,36.37,129.63z"></path>		</g>	</g></g></svg>