<svg xmlns="http://www.w3.org/2000/svg" xmlns:xlink="http://www.w3.org/1999/xlink" id="Layer_1" x="0px" y="0px" viewBox="0 0 185.97 185.97" style="enable-background:new 0 0 185.97 185.97;" xml:space="preserve"><style type="text/css">	.st0{fill:#1C75BC;}	.st1{fill:#FFFFFF;}</style><g>	<g>		<circle class="st0" cx="92.98" cy="92.98" r="92.98"></circle>		<path class="st1" d="M92.92,126.87c-3.34,0-6.69,0-10.03,0c-2.79,0-4.37-1.58-4.37-4.36c0-4.24-0.07-8.48,0.03-12.71   c0.05-2.39-0.66-4.43-2.09-6.29c-1.55-2-3.18-3.96-4.58-6.06c-3.97-5.95-5.09-12.45-3.31-19.38c1.65-6.45,5.42-11.4,10.96-15.02   c5.38-3.51,11.3-4.74,17.6-3.6c9.6,1.74,16.22,7.33,19.55,16.43c3.12,8.51,1.51,16.45-4,23.63c-1.5,1.96-2.94,3.97-4.36,5.98   c-0.66,0.94-0.9,2.02-0.89,3.18c0.03,4.65,0.01,9.3,0.01,13.96c0,2.61-1.61,4.23-4.23,4.24   C99.78,126.88,96.35,126.87,92.92,126.87z M89.24,104.43c0.02-0.14,0.05-0.22,0.05-0.3c0-4.11-0.03-8.22,0-12.34   c0-0.72-0.21-1.17-0.79-1.6c-1.36-1.03-2.69-2.09-3.96-3.22c-1.07-0.95-1.49-2.21-1.11-3.61c0.37-1.38,1.31-2.29,2.69-2.68   c1.13-0.31,2.2-0.07,3.12,0.62c1.11,0.84,2.2,1.71,3.26,2.6c0.36,0.3,0.61,0.28,0.95-0.01c1.01-0.84,2.03-1.65,3.06-2.45   c0.99-0.77,2.1-1.09,3.33-0.76c1.4,0.37,2.31,1.27,2.68,2.67c0.41,1.54-0.11,2.8-1.26,3.79c-1.29,1.11-2.64,2.15-3.98,3.19   c-0.44,0.34-0.62,0.7-0.61,1.26c0.02,3.95,0.02,7.89,0.02,11.84c0,0.31,0,0.61,0,0.99c1.29,0,2.53,0.01,3.77-0.02   c0.12,0,0.27-0.22,0.34-0.36c0.58-1.1,1.03-2.28,1.73-3.29c1.4-2.03,2.89-4,4.4-5.96c5.27-6.82,5.11-15.43-0.43-21.93   c-4.76-5.6-10.95-7.45-18.07-5.71c-5.16,1.26-8.94,4.43-11.3,9.2c-2.71,5.47-2.7,10.92,0.44,16.21c0.99,1.67,2.22,3.21,3.39,4.76   c1.61,2.14,3.29,4.23,4.23,6.79c0.05,0.14,0.25,0.3,0.39,0.31C86.79,104.44,88.01,104.43,89.24,104.43z M99.93,111.95   c-4.67,0-9.27,0-13.88,0c0,2.49,0,4.94,0,7.4c4.65,0,9.27,0,13.88,0C99.93,116.86,99.93,114.42,99.93,111.95z"></path>		<path class="st1" d="M149.73,119.12c-0.08,5.68-3.96,10.26-9.28,11.18c-1.97,0.34-3.94,0.21-5.81-0.59   c-0.4-0.17-0.63-0.08-0.9,0.23c-4.85,5.43-10.69,9.54-17.16,12.81c-1.53,0.78-2.97,0.74-4.29-0.37c-2.09-1.75-1.81-4.67,0.56-6.06   c1.02-0.6,2.08-1.12,3.12-1.68c4.05-2.16,7.59-4.98,10.82-8.21c0.48-0.48,0.94-1,1.46-1.45c0.37-0.32,0.35-0.6,0.17-1.02   c-1.62-3.72-1.51-7.35,0.71-10.81c3.59-5.59,11.47-6.83,16.45-2.57C148.27,112.89,149.66,115.87,149.73,119.12z M138.56,123   c2.08,0,3.69-1.61,3.72-3.72c0.02-1.94-1.74-3.75-3.68-3.76c-2.17-0.01-3.8,1.55-3.81,3.67C134.78,121.3,136.45,122.99,138.56,123   z"></path>		<path class="st1" d="M36.21,119.57c0.04-3.79,1.51-6.59,4.1-8.84c0.33-0.29,0.42-0.51,0.29-0.94c-1.18-3.64-1.99-7.37-2.4-11.17   c-0.39-3.58-0.42-7.17-0.04-10.76c0.2-1.86,2.05-3.37,3.89-3.22c2.15,0.18,3.63,1.96,3.56,4.12c-0.09,2.59-0.18,5.19-0.09,7.77   c0.14,3.79,0.94,7.48,2.1,11.09c0.15,0.46,0.45,0.46,0.81,0.5c4.75,0.56,8.03,3.09,9.56,7.58c2.25,6.62-1.67,13.37-8.83,14.6   C42.49,131.45,36.3,126.07,36.21,119.57z M51.14,119.29c0-2.06-1.65-3.75-3.69-3.76c-2.06-0.01-3.78,1.73-3.76,3.78   c0.02,1.99,1.72,3.68,3.72,3.68C49.48,123,51.13,121.36,51.14,119.29z"></path>		<path class="st1" d="M47.69,55.34c1.13,0.27,2.4,0.54,3.65,0.88c0.37,0.1,0.6,0.11,0.87-0.19c4.92-5.51,10.83-9.7,17.45-12.93   c1.99-0.97,4.05-0.29,5,1.64c0.93,1.89,0.2,4.04-1.77,4.98c-4.16,2-8.03,4.43-11.45,7.54c-1.33,1.22-2.56,2.55-3.81,3.85   c-0.13,0.13-0.15,0.49-0.07,0.68c1.41,3.45,1.57,6.93-0.32,10.2c-2.19,3.79-5.54,5.93-10.02,5.85c-4.41-0.08-7.61-2.24-9.72-6.09   c-3.33-6.06,0.13-13.82,6.57-15.75C45.19,55.68,46.36,55.58,47.69,55.34z M51.15,66.67c0.02-1.98-1.67-3.71-3.66-3.74   c-2.01-0.03-3.8,1.69-3.81,3.67c-0.01,2.08,1.7,3.8,3.8,3.81C49.56,70.43,51.12,68.83,51.15,66.67z"></path>		<path class="st1" d="M81.74,40.33c0.04-5.53,4.37-10.4,9.84-11.06c6.07-0.73,11.29,3.16,12.37,9.24c0.1,0.54,0.46,0.63,0.87,0.72   c3.46,0.72,6.79,1.87,10.03,3.26c3.33,1.42,6.5,3.12,9.45,5.24c1.41,1.01,2.16,2.29,1.83,4.04c-0.44,2.3-3.21,3.64-5.24,2.49   c-1.62-0.92-3.14-2.02-4.76-2.94c-4.16-2.36-8.61-3.96-13.27-5c-0.41-0.09-0.51,0.12-0.67,0.35c-1.75,2.52-4.11,4.12-7.12,4.73   c-6.23,1.25-12.46-3.3-13.19-9.63C81.82,41.28,81.78,40.81,81.74,40.33z M92.98,36.61c-2.12,0.02-3.78,1.67-3.75,3.74   c0.02,2.1,1.72,3.79,3.81,3.78c2.08-0.01,3.72-1.68,3.71-3.79C96.75,38.25,95.07,36.59,92.98,36.61z"></path>		<path class="st1" d="M93.04,156.79c-5.17-0.2-9.93-3.27-11.03-9.29c-0.1-0.56-0.41-0.69-0.86-0.79   c-4.33-0.96-8.52-2.33-12.45-4.39c-2.51-1.32-4.98-2.75-7.34-4.3c-2.1-1.38-2.14-4.3-0.25-5.9c1.23-1.04,2.9-1.16,4.34-0.27   c1.41,0.87,2.76,1.85,4.2,2.67c4.13,2.37,8.54,4.01,13.19,5.03c0.46,0.1,0.72,0,1.02-0.41c2.44-3.31,5.69-4.99,9.85-4.71   c2.95,0.2,5.51,1.37,7.45,3.56c2.93,3.31,3.78,7.14,2.31,11.4C101.71,154.48,96.94,156.74,93.04,156.79z M92.99,141.81   c-2.12,0.02-3.78,1.66-3.76,3.74c0.02,2.11,1.71,3.79,3.81,3.78c2.08-0.01,3.72-1.68,3.72-3.79   C96.75,143.45,95.07,141.79,92.99,141.81z"></path>		<path class="st1" d="M149.76,66.51c-0.13,3.58-1.48,6.36-3.97,8.58c-0.48,0.42-0.52,0.79-0.34,1.35   c1.69,5.31,2.6,10.76,2.61,16.34c0.01,2.09-1.5,3.74-3.57,3.89c-1.82,0.13-3.57-1.34-3.8-3.32c-0.16-1.42-0.13-2.86-0.23-4.29   c-0.26-3.72-1.03-7.34-2.17-10.89c-0.06-0.17-0.39-0.36-0.61-0.37c-3.9-0.22-6.85-2.2-8.73-5.42c-4.28-7.32,0.36-15.42,7.45-16.69   c6.89-1.23,11.79,3.29,13.08,8.64C149.66,65.11,149.68,65.93,149.76,66.51z M134.83,66.67c0.01,2.11,1.65,3.75,3.74,3.74   c1.95,0,3.7-1.75,3.7-3.71c0.01-1.99-1.76-3.8-3.69-3.78C136.47,62.95,134.81,64.59,134.83,66.67z"></path>	</g></g></svg>