<svg xmlns="http://www.w3.org/2000/svg" xmlns:xlink="http://www.w3.org/1999/xlink" id="Layer_1" x="0px" y="0px" viewBox="0 0 89.63 89.64" style="enable-background:new 0 0 89.63 89.64;" xml:space="preserve"><style type="text/css">	.st0{fill:#4372B7;}</style><g>	<path class="st0" d="M41.62,15.02c-0.91,0.33-2.04,0.43-2.67,1.04c-1.62,1.59-3.26,2.04-4.8,0.96c-1.86-1.31-2.5-3.34-1.29-5.22  c1.17-1.82,2.6-3.5,4.08-5.09c0.99-1.06,0.92-1.81,0.16-2.95c-0.61-0.92-0.83-2.1-1.22-3.17c1.26-0.19,2.68-0.85,3.74-0.48  c2.19,0.76,4.18,0.35,6.32,0.04c4.47-0.63,8.9,2.7,9.68,7.18c0.3,1.71,0.17,3.5,0.36,5.24c0.25,2.33,0.48,4.68,0.98,6.97  c0.31,1.41,0.07,2.19-1.3,2.65c-0.9,0.3-1.77,0.72-2.73,1.11c0.39,1.58,0.58,2.96,2.08,3.92c1.63,1.06,2.53,5.6,1.59,7.38  c-0.24,0.45-1.06,0.82-1.62,0.82c-6.84,0.05-13.69,0.03-20.53,0.04c-1.2,0-1.8-0.54-1.72-1.78c0.12-2.02-0.65-4.41,1.16-5.83  c1.67-1.31,2.03-2.96,2.68-4.74c0.62-1.7,1.94-3.16,3.03-4.66c0.73-1,1.6-1.89,2.4-2.83C41.86,15.43,41.74,15.22,41.62,15.02z   M39.69,2.65c1.43,3.03,1.43,3.03-0.66,5.47c-1.06,1.24-2.11,2.49-3.16,3.74c-0.27,0.32-0.72,0.69-0.71,1.02  c0.03,0.68,0.31,1.34,0.49,2.01c0.45-0.33,1.18-0.59,1.3-1.02c0.31-1.09,0.98-1.2,1.92-1.19c0.9,0.01,1.86,0.04,2.67-0.27  c0.52-0.2,1.11-0.99,1.12-1.53c0.01-1.07-0.05-2.11,1.3-2.07c1.33,0.04,1.41,1.31,1.3,2.2c-0.39,3.14-0.55,6.38-3.32,8.68  c-0.96,0.8-1.77,1.85-2.4,2.93c-0.57,0.97-0.79,2.15-1.2,3.36c4.43,0,8.44,0,12.64,0c-1.46-4.17-1.86-8.26-1.17-12.46  c0.36-2.15,0.02-4.19-1.38-6.01c-0.3-0.39,0.02-1.24,0.05-1.88c0.64,0.13,1.36,0.12,1.91,0.42c0.43,0.23,0.67,0.83,0.95,1.3  c1.44,2.46,1.14,5.1,0.92,7.77c-0.15,1.82-0.03,3.66-0.03,5.7c0.88-0.42,1.45-0.69,1.67-0.79c-0.18-3.28-0.34-6.22-0.52-9.16  c-0.06-1.02-0.08-2.06-0.29-3.06c-0.76-3.63-4.18-5.88-7.77-4.95C43.4,3.37,41.57,4.1,39.69,2.65z M35.41,32.77  c6.29,0,12.48,0,18.64,0c0.36-3.54-0.12-4.08-3.52-4.08c-3.87,0-7.73,0-11.6,0C35.52,28.69,35.04,29.23,35.41,32.77z"></path>	<path class="st0" d="M65.62,61.51c0.84,0.4,1.39,0.61,1.9,0.91c1.58,0.91,2.62,0.51,3.09-1.24c0.56-2.08,0.94-2.26,3.99-2.3  c1.66-0.02,2.95,0.23,3.29,2.25c0.29,1.77,1.6,2.31,3.05,1.28c1.75-1.25,2.87-0.38,4.06,0.85c2.06,2.11,2.17,2.43,1.09,4.29  c-0.92,1.58-0.52,2.69,1.3,3.03c2.22,0.42,2.27,1.98,2.25,3.7c-0.02,1.71-0.02,3.27-2.31,3.61c-1.73,0.26-2.23,1.58-1.19,3.08  c1.3,1.88,0.17,2.98-1.03,4.19c-1.17,1.17-2.25,2.21-4.05,1.01c-1.71-1.13-2.75-0.65-3.2,1.42c-0.29,1.36-1.1,1.95-2.4,2.01  c-0.72,0.03-1.45,0.01-2.18,0.01c-1.48,0.01-2.34-0.67-2.67-2.16c-0.43-1.94-1.47-2.38-3.12-1.3c-1.29,0.85-2.36,0.72-3.39-0.35  c-0.46-0.48-0.94-0.95-1.41-1.41c-1.07-1.04-1.17-2.11-0.31-3.39c1.06-1.59,0.56-2.77-1.33-3.14c-1.54-0.3-2.16-1.16-2.14-2.64  c0.01-0.6,0.02-1.21,0-1.81c-0.07-1.58,0.64-2.46,2.21-2.81c1.81-0.4,2.35-1.55,1.34-2.99c-1.07-1.53-0.71-2.69,0.54-3.8  C63.85,63.03,64.74,62.27,65.62,61.51z M64.61,65.86c1.69,3.89,0.91,5.77-3.09,7.56c0,0.59,0,1.18,0,1.75  c3.34,1.32,4.74,3.5,3.65,6.01c-0.58,1.35-0.4,2.12,0.85,2.73c3.35-1.69,5.43-0.98,7.06,2.35c0.18,0.37,0.8,0.78,1.15,0.73  c0.47-0.07,0.92-0.52,1.29-0.89c0.91-0.9,1.61-2.32,2.68-2.67c1.34-0.44,2.96-0.01,4.79,0.05c0.07-0.05,0.56-0.4,0.99-0.7  c-1.73-3.79-1.16-5.36,2.37-7.37c0.36-0.2,0.62-0.83,0.64-1.27c0.02-0.35-0.33-0.87-0.66-1.04c-3.45-1.79-4.06-3.52-2.45-7.17  c-1.12-1.29-1.11-1.25-2.62-0.76c-0.61,0.2-1.31,0.32-1.94,0.27c-2.38-0.21-3.53-1.82-4.13-3.91c-0.68,0-1.27,0-1.84,0  c-1.45,3.91-3.31,4.69-7.58,3.12C65.39,65.04,64.98,65.47,64.61,65.86z"></path>	<path class="st0" d="M14.93,89.61c-1.58,0.08-3.36,0.09-3.98-2.16c-0.03-0.1-0.15-0.18-0.24-0.26c-2.77-2.27-3.05-4.03-1.46-7.31  c0.31-0.64,0.12-1.66-0.14-2.4c-0.4-1.12-1.02-2.18-1.62-3.22c-2.21-3.78-1.42-8.48,1.93-11.3c3.33-2.8,8.18-2.83,11.5-0.05  c3.37,2.81,4.2,7.55,2.03,11.3c-0.6,1.04-1.21,2.09-1.67,3.2c-0.43,1.04-0.56,2,0.27,3.16c1.38,1.91,0.39,5.29-1.6,6.52  c-0.2,0.12-0.49,0.26-0.54,0.44C18.79,89.85,16.93,89.62,14.93,89.61z M16.47,79.07c1.3,0.43,1.71,0.05,2.05-0.99  c0.55-1.7,1.27-3.38,2.14-4.95c1.58-2.85,1.12-6.14-1.31-8.21c-2.39-2.04-5.93-2.02-8.33,0.05c-2.42,2.08-2.83,5.33-1.22,8.21  c0.87,1.57,1.64,3.24,2.13,4.95c0.34,1.18,0.84,1.27,1.97,0.96c0-1.59-0.1-3.21,0.03-4.82c0.13-1.62-0.25-2.76-1.88-3.42  c-0.88-0.35-1.92-0.94-1.15-2.17c0.68-1.09,1.63-0.6,2.34-0.02c1.4,1.14,2.69,1.05,4.02-0.06c0.18-0.15,0.43-0.35,0.63-0.33  c0.54,0.05,1.43,0.08,1.54,0.36c0.18,0.49,0.06,1.31-0.27,1.71c-0.43,0.53-1.25,0.72-1.81,1.17c-0.38,0.3-0.83,0.79-0.85,1.21  C16.42,74.84,16.47,76.95,16.47,79.07z M19.33,84.37c0-0.78,0-1.57,0-2.54c-2.35,0-4.57,0-6.79,0c-0.47,0-0.94,0.05-1.47,0.09  c0,0.9,0,1.71,0,2.63c1.83-0.22,2.66,0.62,2.58,2.35c1.11,0,2.1,0,3.05,0C17.11,84.85,17.11,84.85,19.33,84.37z"></path>	<path class="st0" d="M54.1,55.58c1.52,4.37-1.05,6.2-4.41,8.28c-3.53,2.2-6.04,2.01-9.6-0.01c-3.62-2.05-4.73-4.27-4.76-8.34  c-0.03-4.13,1.27-6.26,4.81-8.32c3.56-2.07,6.1-2.1,9.6,0.06C53.13,49.35,55.59,51.25,54.1,55.58z M50.48,50.84  c-1.8-1.05-3.29-1.95-4.82-2.79c-0.32-0.18-0.85-0.3-1.13-0.16c-1.67,0.88-3.29,1.85-5.17,2.94c1.82,1.06,3.3,1.97,4.84,2.77  c0.39,0.2,1.07,0.21,1.46,0.01C47.19,52.82,48.67,51.9,50.48,50.84z M43.64,62.74c0-2.14,0.02-3.93-0.02-5.72  c-0.01-0.32-0.15-0.78-0.39-0.92c-1.6-0.99-3.24-1.91-5.14-3.01c0,2.18-0.03,3.93,0.02,5.67c0.01,0.36,0.22,0.87,0.5,1.05  C40.17,60.77,41.78,61.67,43.64,62.74z M51.78,53.08c-1.92,1.11-3.53,2.01-5.1,2.98c-0.25,0.15-0.44,0.59-0.45,0.89  c-0.04,1.83-0.02,3.66-0.02,5.78c1.83-1.05,3.35-1.88,4.82-2.8c0.35-0.22,0.7-0.72,0.72-1.11C51.82,57.04,51.78,55.25,51.78,53.08z  "></path>	<path class="st0" d="M34.47,84.42c0.41,0.98,0.86,1.66,0.94,2.4c0.06,0.53-0.36,1.11-0.57,1.67c-0.56-0.21-1.41-0.25-1.63-0.65  c-0.94-1.75-1.79-3.57-2.45-5.44c-0.17-0.47,0.34-1.53,0.83-1.81c1.57-0.89,3.24-1.65,4.94-2.23c0.54-0.19,1.31,0.32,1.98,0.51  c-0.35,0.61-0.59,1.34-1.09,1.78c-0.51,0.46-1.27,0.64-1.92,0.95c-0.02,0.2-0.05,0.4-0.07,0.6c2.6,0.47,5.2,1.33,7.79,1.3  c3.4-0.03,6.8-0.74,10.19-1.22c0.96-0.14,2.03-0.65,2.41,0.68c0.34,1.2-0.71,1.48-1.59,1.77c-5.93,1.9-11.88,1.93-17.86,0.26  C35.83,84.82,35.28,84.65,34.47,84.42z"></path>	<path class="st0" d="M24.86,32.05c-0.75-0.11-1.57-0.09-2.26-0.39c-0.48-0.21-1.01-0.85-1.06-1.34c-0.03-0.33,0.75-1.08,1.14-1.06  c2.11,0.1,4.22,0.31,6.3,0.67c0.39,0.07,0.92,0.97,0.91,1.48c-0.05,1.87-0.2,3.75-0.52,5.59c-0.09,0.52-0.88,0.91-1.34,1.37  c-0.38-0.52-0.97-0.99-1.09-1.56c-0.16-0.78,0.03-1.64,0.09-2.82c-4.02,3.31-6.68,7.17-8.39,11.69c-0.47,1.24-0.81,2.53-1.13,3.82  c-0.24,0.98-0.39,2.1-1.73,1.78c-1.38-0.32-0.96-1.51-0.75-2.41c1.37-5.99,4.24-11.14,8.69-15.4c0.39-0.37,0.76-0.77,1.13-1.16  C24.88,32.27,24.86,32.19,24.86,32.05z"></path>	<path class="st0" d="M75.12,50.23c0.68-0.88,1.02-1.57,1.58-1.98c0.45-0.33,1.14-0.33,1.73-0.48c0.13,0.59,0.57,1.37,0.34,1.73  c-1.09,1.74-2.29,3.42-3.61,4.99c-0.29,0.34-1.41,0.37-1.87,0.09c-1.55-0.93-3.05-1.99-4.42-3.16c-0.43-0.37-0.39-1.28-0.57-1.94  c0.7-0.01,1.45-0.17,2.08,0.02c0.64,0.2,1.18,0.75,2.16,1.43c-0.26-1.33-0.37-2.21-0.61-3.04c-1.41-4.93-3.98-9.18-7.71-12.71  c-0.31-0.29-0.8-0.53-0.89-0.87c-0.16-0.61-0.08-1.28-0.1-1.92c0.6,0.03,1.44-0.19,1.75,0.12c1.81,1.85,3.65,3.71,5.2,5.78  C72.73,41.7,74.18,45.67,75.12,50.23z"></path>	<path class="st0" d="M23.36,55.55c0.59,0.78,1.3,1.41,1.19,1.64c-0.57,1.2-1.32,2.33-2.12,3.41c-0.08,0.11-1.3-0.35-1.29-0.49  c0.06-0.83,0.21-1.7,0.57-2.45C22.04,56.97,22.66,56.42,23.36,55.55z"></path>	<path class="st0" d="M16.49,56.47c-0.03,0.48,0.08,1.03-0.13,1.41c-0.22,0.41-0.71,0.84-1.14,0.9c-0.33,0.05-1.03-0.41-1.07-0.71  c-0.15-1.11-0.18-2.25-0.05-3.36c0.04-0.33,0.79-0.81,1.19-0.79c0.39,0.02,0.9,0.53,1.08,0.94C16.57,55.33,16.46,55.93,16.49,56.47  z"></path>	<path class="st0" d="M7.1,55.55c0.75,0.99,1.41,1.65,1.8,2.44c0.31,0.63,0.4,1.43,0.35,2.14c-0.01,0.19-1.21,0.56-1.3,0.45  c-0.78-1.08-1.5-2.22-2.05-3.43C5.8,56.92,6.51,56.32,7.1,55.55z"></path>	<path class="st0" d="M27.23,66.01c-0.49-0.41-0.95-0.64-1.14-1.01c-0.16-0.3-0.14-0.98,0.06-1.13c0.96-0.68,1.98-1.31,3.06-1.79  c0.26-0.12,0.92,0.26,1.16,0.59c0.19,0.26,0.21,0.98,0.01,1.14C29.42,64.59,28.36,65.24,27.23,66.01z"></path>	<path class="st0" d="M5.13,65.07c-0.55,0.22-1.24,0.77-1.64,0.6c-1.23-0.51-2.38-1.26-3.47-2.03c-0.11-0.08,0.2-1.18,0.58-1.44  c0.85-0.6,3.8,1.15,3.86,2.2C4.68,64.63,4.91,64.85,5.13,65.07z"></path>	<path class="st0" d="M66.13,74.2c0.02-4.49,3.6-8.05,8.09-8.06c4.54-0.01,8.25,3.7,8.21,8.18c-0.04,4.41-3.73,8.09-8.15,8.11  C69.8,82.46,66.11,78.74,66.13,74.2z M68.69,74.34c0.04,3.03,2.55,5.53,5.57,5.52c3.07,0,5.67-2.65,5.61-5.7  c-0.06-3.03-2.57-5.48-5.61-5.48C71.1,68.69,68.65,71.17,68.69,74.34z"></path></g></svg>