<svg xmlns="http://www.w3.org/2000/svg" xmlns:xlink="http://www.w3.org/1999/xlink" id="Layer_1" x="0px" y="0px" viewBox="0 0 90.05 90.05" style="enable-background:new 0 0 90.05 90.05;" xml:space="preserve"><style type="text/css">	.st0{fill:#FFFFFF;}</style><g>	<g>		<defs>			<path id="SVGID_1_" d="M0,45.03c0,24.87,20.16,45.03,45.03,45.03c24.87,0,45.02-20.16,45.02-45.03C90.05,20.16,69.89,0,45.03,0    C20.16,0,0,20.16,0,45.03"></path>		</defs>		<use xlink:href="#SVGID_1_" style="overflow:visible;fill:#1C75BC;"></use>		<clipPath id="SVGID_00000143600303870197610870000012774750783053153411_">			<use xlink:href="#SVGID_1_" style="overflow:visible;"></use>		</clipPath>	</g>	<g>		<path class="st0" d="M56.29,42.74c-0.32-0.29-0.61-0.54-0.89-0.81c-0.63-0.58-1.26-1.16-1.88-1.75c-0.1-0.09-0.17-0.25-0.19-0.38   c-0.27-2.22-1.06-4.22-2.45-5.97c-1.47-1.85-3.28-3.25-5.53-4.04c-0.83-0.29-1.67-0.49-2.54-0.6c-0.98-0.13-1.96-0.13-2.93-0.03   c-2.36,0.25-4.46,1.13-6.29,2.63c-1.61,1.32-2.85,2.94-3.63,4.88c-0.58,1.43-0.83,2.92-0.88,4.46c-0.06,1.83,0.38,3.53,1.1,5.19   c1,2.3,2.37,4.36,3.94,6.3c1.2,1.49,2.47,2.93,3.82,4.29c1.03,1.03,2.12,2.01,3.18,3.01c0.06,0.06,0.12,0.16,0.12,0.25   c0.01,1.16,0.01,2.33,0.01,3.49c0,0.05,0,0.1-0.01,0.17c-0.05-0.03-0.09-0.05-0.12-0.07c-2.88-2.3-5.51-4.85-7.92-7.63   c-1.28-1.48-2.47-3.04-3.56-4.67c-0.75-1.12-1.4-2.31-1.98-3.54c-0.73-1.54-1.19-3.16-1.44-4.84c-0.15-1.02-0.13-2.04-0.04-3.06   c0.12-1.49,0.46-2.94,1.03-4.33c0.51-1.25,1.17-2.43,1.99-3.51c0.57-0.75,1.2-1.43,1.88-2.08c0.98-0.94,2.1-1.68,3.29-2.29   c1.42-0.73,2.93-1.24,4.52-1.48c1.14-0.17,2.29-0.26,3.44-0.16c1.46,0.14,2.89,0.43,4.27,0.96c2.08,0.8,3.89,2.01,5.45,3.58   c1.29,1.31,2.3,2.82,3.05,4.5c0.53,1.2,0.89,2.46,1.08,3.76c0.17,1.18,0.23,2.36,0.14,3.56C56.31,42.6,56.3,42.64,56.29,42.74"></path>		<path class="st0" d="M52.49,43.27c3.83,3.49,7.64,6.97,11.46,10.45c-0.02,0.04-0.03,0.07-0.05,0.09c-0.6,0.66-1.2,1.31-1.79,1.97   c-0.09,0.1-0.15,0.09-0.24,0.01c-0.22-0.21-0.45-0.4-0.71-0.64v0.23c0,1.5,0,2.99,0,4.49c0,1.95-1.46,3.48-2.93,3.88   c-0.4,0.11-0.84,0.16-1.26,0.16c-2.99,0.01-5.98-0.02-8.96,0.02c-2.07,0.02-3.45-1.36-3.95-2.67c-0.15-0.39-0.23-0.79-0.23-1.21   c-0.01-1.56,0-3.13-0.01-4.69c0-0.04,0-0.07,0-0.17c-0.3,0.26-0.56,0.49-0.84,0.73c-0.66-0.72-1.32-1.43-1.99-2.16   C44.82,50.25,48.64,46.78,52.49,43.27 M52.48,47.23c-0.29,0.28-0.56,0.55-0.84,0.8c-1.58,1.44-3.17,2.87-4.75,4.3   c-0.1,0.09-0.14,0.18-0.14,0.32c0.01,0.4,0.02,0.8,0.02,1.2c0,1.97,0,3.94,0,5.91c0,0.77,0.42,1.19,1.19,1.19   c3.04,0,6.07,0,9.11,0c0.16,0,0.33-0.03,0.49-0.08c0.42-0.15,0.64-0.51,0.64-1.02c0-1.4,0-2.81,0-4.21c0-1.01,0-2.02,0-3.03   c0-0.07-0.01-0.16-0.05-0.2c-0.65-0.6-1.32-1.19-1.97-1.79c-1.01-0.92-2.02-1.85-3.02-2.77C52.93,47.64,52.71,47.44,52.48,47.23"></path>		<path class="st0" d="M47.49,41.32c-0.04,3.39-2.86,6.29-6.46,6.18c-3.32-0.1-6.08-2.85-6.05-6.3c0.03-3.55,3-6.23,6.29-6.2   C44.72,35.04,47.51,37.87,47.49,41.32 M44.56,41.24c0-1.84-1.48-3.31-3.32-3.3c-1.85,0-3.33,1.48-3.32,3.32   c0,1.83,1.49,3.32,3.31,3.32C43.09,44.58,44.56,43.11,44.56,41.24"></path>		<path class="st0" d="M50.3,55.71c0-0.67,0-1.34,0-2.01c0-0.15,0.05-0.2,0.2-0.2c1.34,0,2.68,0,4.03,0c0.16,0,0.2,0.05,0.2,0.2   c0,1.34,0,2.68,0,4.03c0,0.14-0.03,0.21-0.19,0.21c-1.35-0.01-2.7,0-4.04,0c-0.16,0-0.2-0.06-0.19-0.21   C50.31,57.05,50.3,56.38,50.3,55.71L50.3,55.71z"></path>	</g></g></svg>