<svg xmlns="http://www.w3.org/2000/svg" xmlns:xlink="http://www.w3.org/1999/xlink" id="Layer_1" x="0px" y="0px" viewBox="0 0 148.8 144.04" style="enable-background:new 0 0 148.8 144.04;" xml:space="preserve"><style type="text/css">	.st0{fill:#FFFFFF;}</style><g>	<g>		<path class="st0" d="M91.29,15.76c0.01-0.42,0.02-0.84,0.03-1.26c-1.08-0.79-2.06-1.99-3.26-2.26c-1.75-0.4-2.92,0.87-3.03,2.61   c-0.12,1.9,1.06,3.28,2.89,3.07C89.11,17.78,90.17,16.52,91.29,15.76z"></path>		<path class="st0" d="M59.83,52.48c-0.03,9.51-7.77,17.26-17.26,17.29c-9.52,0.03-17.48-7.96-17.41-17.48   c0.07-9.59,7.96-17.32,17.6-17.24C52.24,35.13,59.86,42.92,59.83,52.48z M55.45,52.41c0-7.21-5.73-12.98-12.9-12.99   c-7.16,0-12.97,5.78-13,12.94c-0.03,7.09,5.86,13.01,12.95,13.03C49.61,65.41,55.45,59.56,55.45,52.41z"></path>		<path class="st0" d="M126.56,132.97c-4.98-0.04-8.94-4.05-8.92-9.03c0.02-4.96,4.03-8.97,8.99-8.98c5.03-0.01,9.22,4.22,9.1,9.19   C135.6,129.11,131.56,133.01,126.56,132.97z M131.36,123.97c-0.01-2.5-2.17-4.64-4.7-4.64c-2.58,0-4.62,2.06-4.62,4.66   c0,2.61,2.03,4.62,4.64,4.61C129.24,128.59,131.37,126.48,131.36,123.97z"></path>		<path class="st0" d="M22.3,132.97c-4.99,0.05-9.05-3.83-9.19-8.79c-0.14-4.97,4.04-9.22,9.07-9.22c4.96,0,8.98,4,9.02,8.96   C31.23,128.89,27.27,132.92,22.3,132.97z M22.1,119.33c-2.52,0.04-4.66,2.22-4.62,4.72c0.04,2.52,2.19,4.58,4.76,4.55   c2.61-0.03,4.6-2.07,4.56-4.69C26.76,121.32,24.67,119.29,22.1,119.33z"></path>		<path class="st0" d="M56.94,132.97c-4.96-0.03-9-4.06-9-8.99c0-4.9,4.08-8.99,9-9.02c5.05-0.03,9.21,4.14,9.12,9.15   C65.96,129.08,61.92,133,56.94,132.97z M57.09,119.33c-2.53-0.05-4.71,2.04-4.77,4.56c-0.05,2.52,2.04,4.66,4.6,4.71   c2.59,0.04,4.7-1.98,4.75-4.54C61.7,121.51,59.65,119.38,57.09,119.33z"></path>		<path class="st0" d="M91.71,132.97c-4.95-0.05-8.97-4.12-8.92-9.05c0.04-4.93,4.11-8.96,9.04-8.96c5.03,0,9.21,4.24,9.07,9.22   C100.75,129.14,96.7,133.02,91.71,132.97z M96.51,123.85c-0.08-2.53-2.27-4.59-4.8-4.52c-2.55,0.07-4.6,2.22-4.53,4.77   c0.07,2.56,2.19,4.56,4.78,4.5C94.52,128.54,96.59,126.37,96.51,123.85z"></path>		<path class="st0" d="M39.72,132.96c-1.71,0-3.46,0.2-5.12-0.09c-0.82-0.14-2.17-1.35-2.07-1.81c0.19-0.9,1.2-2.25,1.94-2.3   c3.41-0.25,6.85-0.24,10.26,0c0.74,0.05,1.75,1.41,1.92,2.31c0.09,0.48-1.25,1.65-2.07,1.81C43,133.18,41.34,132.97,39.72,132.96z   "></path>		<path class="st0" d="M74.2,132.97c-1.53,0-3.12,0.24-4.58-0.09c-0.9-0.2-1.61-1.25-2.41-1.92c0.71-0.77,1.38-2.15,2.15-2.21   c3.32-0.25,6.67-0.25,9.99-0.02c0.8,0.06,1.51,1.37,2.26,2.11c-0.76,0.71-1.43,1.86-2.29,2.03   C77.68,133.2,75.92,132.97,74.2,132.97z"></path>		<path class="st0" d="M109.4,132.97c-1.71,0-3.46,0.2-5.12-0.08c-0.82-0.14-2.17-1.31-2.08-1.8c0.16-0.89,1.17-2.26,1.9-2.32   c3.41-0.25,6.85-0.25,10.26-0.01c0.75,0.05,1.41,1.47,2.11,2.26c-0.73,0.65-1.38,1.7-2.21,1.86   C112.69,133.17,111.02,132.96,109.4,132.97z"></path>		<path class="st0" d="M39.9,114.96c1.53,0,3.12-0.25,4.58,0.09c0.88,0.21,1.55,1.33,2.32,2.04c-0.74,0.74-1.45,2.05-2.24,2.11   c-3.32,0.24-6.67,0.24-9.99-0.01c-0.77-0.06-1.45-1.41-2.17-2.17c0.79-0.69,1.5-1.8,2.39-1.97   C36.43,114.73,38.18,114.96,39.9,114.96z"></path>		<path class="st0" d="M74.09,119.3c-1.53,0-3.13,0.25-4.57-0.09c-0.88-0.21-1.54-1.35-2.3-2.07c0.75-0.72,1.46-2.02,2.26-2.07   c3.32-0.23,6.67-0.21,9.99,0c0.75,0.05,2.1,1.37,2,1.89c-0.17,0.88-1.16,2.07-1.99,2.24c-1.73,0.34-3.58,0.1-5.39,0.1   C74.09,119.29,74.09,119.3,74.09,119.3z"></path>		<path class="st0" d="M109.21,114.96c1.62,0,3.29-0.24,4.85,0.09c0.9,0.19,1.6,1.28,2.39,1.97c-0.72,0.76-1.4,2.11-2.17,2.17   c-3.32,0.24-6.67,0.25-9.99,0.01c-0.79-0.06-1.49-1.37-2.24-2.11c0.76-0.71,1.44-1.85,2.31-2.04   C105.91,114.72,107.59,114.96,109.21,114.96z"></path>		<path class="st0" d="M91.29,15.76c-1.12,0.76-2.18,2.02-3.37,2.16c-1.83,0.21-3.02-1.16-2.89-3.07c0.11-1.74,1.28-3.01,3.03-2.61   c1.2,0.27,2.18,1.48,3.26,2.26C91.31,14.92,91.3,15.34,91.29,15.76z"></path>	</g>	<path class="st0" d="M106.93,46.92c-3.29-10.25-13.35-13.77-19.44-21.2c-5.74,4.8-11.17,9.3-16.56,13.85  c-1.33,1.12-0.64,4.72,1.23,5.08c4.78,0.91,5.04,4.11,4.68,7.88c-0.09,0.9-0.09,1.82,0,2.72c0.2,2.11-0.63,3.32-2.68,4.08  c-4.14,1.52-6.25,6.58-4.36,10.55c0.94,1.99,0.7,3.39-0.95,4.75c-0.91,0.74-1.79,1.57-2.49,2.5c-2.2,2.93-4.69,4.05-8.06,1.78  c-0.49-0.33-1.42-0.32-2.02-0.1c-1.93,0.71-3.8,1.6-5.97,2.54c1.75,6.65,3.49,13.26,5.21,19.79c5.86,0.95,6.88,1.96,7.73,7.72  c2.02,0,4.09,0,6.15,0c0.88,0,1.77,0,3.01,0c0-2.53,0-4.76,0-7c0-4.26,0.02-8.52-0.01-12.77c-0.01-1.89,0.58-3.25,2.72-3.26  c7.34-0.02,14.67-0.03,22.01,0c2.12,0.01,2.72,1.37,2.71,3.27c-0.03,5.53-0.01,11.05-0.01,16.58c0,0.97,0,1.93,0,3.03  c1.76,0,3.17,0,4.97,0c0-1.03,0-1.99,0-2.94c0-5.62,0.04-11.23-0.02-16.85c-0.02-2.03,0.78-3.1,2.83-3.1  c7.25-0.01,14.49-0.01,21.74,0.01c2.1,0,2.77,1.18,2.75,3.16c-0.06,6.25,0.02,12.5-0.05,18.75c-0.02,1.42,0.32,2.18,1.67,2.91  c6.3,3.42,9.25,10.04,7.66,16.71c-1.61,6.8-7.05,11.29-14.19,11.72c-0.9,0.05-1.81,0.05-2.72,0.05c-33.43,0-66.85,0.01-100.28-0.02  c-1.98,0-4.02-0.07-5.92-0.55c-6-1.5-10.34-6.55-11.18-12.66c-0.81-5.88,2.09-11.91,7.39-14.93c1.57-0.89,2.33-1.77,2.31-3.7  c-0.04-3.47,1.86-5.13,6.53-6.14c-0.39-6.64-0.74-13.32-1.21-19.99c-0.05-0.67-0.76-1.35-1.28-1.92c-0.91-1-1.83-2.03-2.89-2.87  c-2.86-2.26-4.35-4.62-1.95-8.25c1.09-1.65-1.86-7.82-3.87-8.32c-3.26-0.81-4.49-2.68-3.98-5.91c0.13-0.8,0.11-1.64,0-2.44  c-0.47-3.41,0.49-5.71,4.21-6.6c2.18-0.52,4.6-6.69,3.42-8.68c-1.71-2.9-1.22-5.06,1.39-6.99c0.72-0.53,1.29-1.27,1.93-1.91  c3.25-3.22,2.86-3.57,7.39-1.52c0.76,0.35,1.92,0.29,2.73-0.01c3.08-1.15,6.35-2.11,7-6.18c0.09-0.59,1.45-1.22,2.3-1.37  c1.32-0.23,2.72,0.06,4.06-0.09c3.76-0.42,6.74,0.06,7.64,4.6c0.35,1.76,3.06,2.4,4.74,1.41c7.87-4.64,15.73-9.32,23.56-14.03  c0.75-0.45,1.31-1.22,1.93-1.87c2.83-2.96,6.31-3.96,10.17-2.91c3.88,1.05,6.25,3.74,7.24,7.7c0.29,1.16,0.87,2.38,1.66,3.26  c4.38,4.83,8.84,9.59,13.33,14.32c0.65,0.68,1.5,1.37,2.38,1.61c7.26,2.03,9.55,7.84,5.54,14.62c0.83,0.52,1.67,1.02,2.48,1.56  c10.2,6.74,10.31,21.78,0.15,28.45c-0.88,0.58-2.49,1.16-3.11,0.75c-0.81-0.53-1.27-2.03-1.34-3.15c-0.18-2.89-0.04-5.79-0.07-8.69  c-0.03-2.87-4.2-5.25-6.77-4.11c-2.73,1.22-3.99,2.93-3.56,6.03c0.3,2.22,0.19,4.53,0,6.78c-0.09,1.04-0.55,2.54-1.29,2.9  c-0.78,0.37-2.28-0.1-3.14-0.68c-9.97-6.69-9.74-21.6,0.39-28.29C105.29,47.89,106.07,47.45,106.93,46.92z M61.3,75.31  c1.81,0.03,4.52-3.84,3.65-5.42c-1.18-2.13-1.23-4.03,0.17-6.07c0.65-0.95,1.16-2.1,1.36-3.23c0.47-2.61,1.86-4.22,4.46-4.78  c1.96-0.42,1.54-1.99,1.48-3.27c-0.05-1.32,0.71-3.11-1.42-3.55c-2.78-0.57-4.04-2.39-4.59-5c-0.2-0.96-0.59-1.94-1.15-2.74  c-1.51-2.18-1.53-4.24-0.28-6.59c0.35-0.65-0.16-2.2-0.79-2.84c-1-1.01-1.74-3.29-3.81-2c-2.51,1.56-4.71,1.2-7.03-0.31  c-0.89-0.58-1.96-1.03-3-1.21c-2.32-0.41-3.78-1.63-4.22-3.95c-0.37-1.94-1.74-2.01-3.27-1.87c-1.5,0.14-3.38-0.66-3.88,1.78  c-0.48,2.39-2.02,3.67-4.43,4.1c-1.04,0.19-2.12,0.62-3,1.22c-2.25,1.56-4.43,1.74-6.77,0.24c-1.83-1.17-2.56,0.61-3.51,1.52  c-0.89,0.86-2.46,1.59-1.3,3.31c1.59,2.33,1.26,4.53-0.29,6.76c-0.55,0.8-0.98,1.79-1.13,2.74c-0.42,2.63-1.81,4.24-4.42,4.8  c-2.28,0.49-1.49,2.32-1.59,3.73c-0.09,1.34-0.29,2.78,1.63,3.16c2.63,0.52,3.95,2.22,4.39,4.82c0.18,1.04,0.66,2.1,1.27,2.98  c1.45,2.09,1.64,4.15,0.21,6.27c-0.96,1.43-0.24,2.39,0.85,3.18c1.18,0.86,1.8,3.16,3.92,1.8c2.38-1.52,4.53-1.16,6.76,0.33  c0.88,0.59,1.96,1,3.01,1.2c2.4,0.46,3.93,1.75,4.4,4.14c0.48,2.43,2.35,1.66,3.85,1.79c1.52,0.13,2.75,0.05,3.32-1.83  c0.36-1.21,1.2-3.05,2.07-3.2c4.25-0.75,7.89-5.68,12.8-2.06C61.11,75.3,61.21,75.29,61.3,75.31z M74.4,113.23  c-6.43,0-12.85,0-19.28,0c-11.04,0-22.09-0.09-33.13,0.05c-7.59,0.1-12.54,7.51-9.92,14.49c1.71,4.57,5.59,6.97,11.44,6.97  c33.95,0.01,67.89,0.01,101.84,0c0.81,0,1.63-0.01,2.44-0.1c4.6-0.55,7.68-3.08,9.11-7.42c2.34-7.09-2.83-13.94-10.63-13.97  C108.98,113.18,91.69,113.23,74.4,113.23z M47.17,86.71c-2.93,0-5.56,0.14-8.16-0.07c-1-0.08-2.66-0.82-2.78-1.48  c-0.72-4.2-4.16-5-7.26-6.31c-1.55-0.66-2.53-0.38-2.43,1.5c0.38,6.93,0.8,13.87,1.2,20.88c7.86,0,15.47,0,23.27,0  C49.72,96.31,48.47,91.61,47.17,86.71z M92.19,90.36c0,2.16-0.04,4.06,0.01,5.95c0.06,2.24-0.9,3.39-3.22,3.34  c-1.9-0.05-3.8-0.05-5.7,0c-2.31,0.06-3.29-1.06-3.23-3.31c0.05-1.96,0.01-3.92,0.01-6.13c-1.32,0.08-2.23,0.13-3.01,0.18  c0,6.35,0,12.34,0,18.31c6.21,0,12.14,0,18.24,0c0-6.17,0-12.16,0-18.33C94.29,90.36,93.43,90.36,92.19,90.36z M109.35,90.35  c0,6.23,0,12.24,0,18.33c6.17,0,12.17,0,18.22,0c0-6.19,0-12.2,0-18.27c-1.09,0-2.02,0-2.79,0c-0.32,2.97,0.33,6.66-1.19,8.17  c-1.51,1.5-5.2,0.8-7.93,1.06c-0.09,0.01-0.18,0-0.27,0c-1.97-0.01-3.02-0.89-2.96-2.98c0.06-2.05,0.01-4.11,0.01-6.31  C111.31,90.35,110.45,90.35,109.35,90.35z M104.28,70.62c0-2.65,0.09-4.83-0.03-6.99c-0.1-1.77,0.6-2.84,2.14-3.68  c9.27-5.03,5.48-5.02,14.62-0.06c1.76,0.96,2.41,2.22,2.31,4.16c-0.12,2.15-0.03,4.3-0.03,7.13c4.77-6.19,4.13-13.51-0.97-18.03  c-4.98-4.41-12.49-4.23-17.26,0.41C100.33,58.16,99.83,65.39,104.28,70.62z M70.78,33.98c3.87-3.24,7.86-6.59,11.49-9.63  c-1.78-2.81-3.43-5.42-5.22-8.24c-4.37,2.59-9.09,5.39-13.8,8.18C65.43,27.79,69.87,29.41,70.78,33.98z M21.3,108.67  c12.51,0,24.83,0,37.15,0c0.44-2.06-0.34-2.89-2.22-2.88c-10.93,0.01-21.86,0.01-32.79,0C21.49,105.78,20.82,106.68,21.3,108.67z   M109.22,33.13c-4.07-4.37-8.12-8.71-12.09-12.97c-1.62,1.51-3.12,2.91-4.71,4.4c4.52,3.95,9.05,7.91,13.13,11.47  C106.89,34.98,108.01,34.09,109.22,33.13z M93.68,15.06c0.01-3.15-2.46-5.66-5.61-5.72c-3.23-0.06-5.93,2.55-5.92,5.73  c0.01,3.04,2.61,5.7,5.66,5.78C90.97,20.94,93.68,18.27,93.68,15.06z M118.43,40.93c-0.05-2.49-2.03-4.4-4.55-4.39  c-2.48,0.01-4.51,1.99-4.53,4.44c-0.03,2.55,2.11,4.59,4.72,4.51C116.58,45.41,118.48,43.43,118.43,40.93z M84.64,90.46  c0,1.65,0,3.12,0,4.8c1.12-0.05,2.04-0.1,2.91-0.14C88.21,90.21,88.08,90,84.64,90.46z M116.96,90.33c0,1.72,0,3.2,0,4.75  c1.08,0,2.01,0,2.98,0c0-1.66,0-3.14,0-4.75C118.93,90.33,118.06,90.33,116.96,90.33z"></path></g></svg>