<svg xmlns="http://www.w3.org/2000/svg" xmlns:xlink="http://www.w3.org/1999/xlink" id="Layer_1" x="0px" y="0px" viewBox="0 0 90.05 90.05" style="enable-background:new 0 0 90.05 90.05;" xml:space="preserve"><style type="text/css">	.st0{fill:#FFFFFF;}</style><g>	<g>		<defs>			<path id="SVGID_1_" d="M0,45.03c0,24.87,20.16,45.03,45.03,45.03c24.87,0,45.03-20.16,45.03-45.03C90.05,20.16,69.89,0,45.03,0    C20.16,0,0,20.16,0,45.03"></path>		</defs>		<use xlink:href="#SVGID_1_" style="overflow:visible;fill:#1C75BC;"></use>		<clipPath id="SVGID_00000180367485668855500310000010976948528374553524_">			<use xlink:href="#SVGID_1_" style="overflow:visible;"></use>		</clipPath>	</g>	<g>		<path class="st0" d="M26.74,33.9c0.05-0.21,0.1-0.42,0.14-0.63c0.17-0.8,0.53-1.5,1.11-2.08c0.95-0.96,1.91-1.93,2.88-2.87   c1.22-1.19,2.65-1.19,3.87,0.01c1.45,1.42,2.88,2.85,4.3,4.3c1.26,1.29,1.26,2.64,0,3.95c-0.83,0.87-1.69,1.71-2.56,2.55   c-0.31,0.3-0.37,0.58-0.19,0.98c0.76,1.71,1.87,3.18,3.08,4.59c1.71,1.97,3.6,3.74,5.81,5.14c0.65,0.41,1.36,0.74,2.03,1.1   c0.3,0.16,0.53,0.03,0.74-0.18c0.89-0.9,1.78-1.8,2.69-2.69c0.7-0.69,1.54-1.08,2.52-0.76c0.46,0.15,0.94,0.42,1.29,0.76   c1.51,1.45,2.98,2.93,4.45,4.42c1.12,1.14,1.15,2.53,0.06,3.7c-0.98,1.06-2,2.09-3.05,3.08c-1.13,1.06-2.55,1.27-4.04,1.14   c-2.58-0.21-4.92-1.16-7.17-2.34c-6.93-3.65-12.19-8.98-15.77-15.94c-0.97-1.88-1.74-3.85-2.08-5.96   c-0.04-0.22-0.08-0.44-0.11-0.66V33.9z"></path>		<path class="st0" d="M45.83,23.94c0.84,0.19,1.69,0.33,2.5,0.59c8.22,2.55,13.05,8.16,14.98,16.53c-0.99,0.17-1.9,0.33-2.86,0.5   c-0.71-3.85-2.43-7.16-5.23-9.87c-2.8-2.71-6.14-4.33-10.05-4.93c0.14-0.95,0.29-1.88,0.43-2.81H45.83z"></path>		<path class="st0" d="M44.81,34.01c0.13-0.92,0.25-1.82,0.39-2.77c2.52,0.36,4.71,1.36,6.58,3.04c2.18,1.95,3.53,4.36,4.06,7.28   c-0.94,0.16-1.85,0.32-2.76,0.47C52.04,37.59,49.3,34.92,44.81,34.01"></path>	</g></g></svg>