<svg xmlns="http://www.w3.org/2000/svg" xmlns:xlink="http://www.w3.org/1999/xlink" id="Layer_1" x="0px" y="0px" viewBox="0 0 89.63 89.64" style="enable-background:new 0 0 89.63 89.64;" xml:space="preserve"><style type="text/css">	.st0{fill:#4372B7;}</style><g>	<path class="st0" d="M20.41,10.23c0.14-2.21,1.52-2.62,3.34-2.54c1.92,0.08,3.85-0.01,5.77,0.03c0.85,0.02,1.37-0.15,1.72-1.06  c1.02-2.62,3.04-4.03,5.83-4.05c2.88-0.03,4.81,1.49,6.05,4.06c0.23,0.48,0.98,0.96,1.52,0.99c2.08,0.11,4.18,0.09,6.26,0.04  c1.69-0.04,2.77,0.56,2.91,2.54c2.2,0,4.39-0.01,6.58,0c4.07,0.02,6.16,2.14,6.17,6.24c0,1.37,0,2.73,0,3.88  c2.21,0.25,4.32,0.2,6.27,0.75c7.86,2.22,11.49,11.5,7.32,18.45c-0.27,0.46-0.62,0.98-1.06,1.19c-0.34,0.16-1.24-0.07-1.28-0.25  c-0.13-0.62-0.2-1.4,0.08-1.92c2.55-4.78,1.78-9.79-2.11-13.13c-3.32-2.86-8.06-3.23-11.82-0.93c-3.92,2.4-6.08,7.01-4.76,11.15  c0.78,2.45,1.16,4.72,0.05,7.33c0.68-0.1,1.12-0.09,1.51-0.24c1.74-0.67,3.34-0.48,5.08,0.23c2.37,0.97,4.85,0.77,7.22-0.25  c0.86-0.37,1.76-0.73,2.25,0.38c0.5,1.14-0.46,1.55-1.27,1.9c-2.33,1-4.74,1.33-7.49,0.79c0,0.72,0,1.36,0,1.99  c0,10.99,0,21.99,0,32.98c0,4.22-2.06,6.28-6.27,6.28c-15.5,0-31,0-46.5,0c-3.99,0-6.08-2.08-6.09-6.11  c-0.01-21.49-0.01-42.99,0-64.48c0-4.19,2.08-6.21,6.33-6.22C16.13,10.22,18.22,10.23,20.41,10.23z M58.92,45.94  c-2.24-0.93-2.53-1.4-1.91-3.66c0.52-1.88,0.64-3.62-0.07-5.57c-1.13-3.08-0.83-6.31,0.89-9.06c1.99-3.18,0.71-6.45,1.18-9.7  c-1.92,0-3.54,0-4.92,0c-0.39,1.25-0.54,2.43-1.1,3.38c-0.87,1.49-4.42,2.25-6.02,1.39c-0.36-0.19-0.82-0.85-0.72-1.11  c0.18-0.47,0.67-1.03,1.14-1.15c0.78-0.19,1.67,0.07,2.45-0.12c0.52-0.13,1.32-0.69,1.34-1.08c0.11-3,0.06-6,0.06-9.1  c-2.61,0-5.02-0.05-7.44,0.02c-1.63,0.05-2.54-0.58-2.94-2.2c-0.45-1.86-1.92-2.9-3.72-2.9c-1.78,0-3.31,1.05-3.72,2.91  c-0.4,1.79-1.45,2.24-3.09,2.2c-2.4-0.07-4.79-0.02-7.29-0.02c0,2.86,0.06,5.49-0.02,8.12c-0.05,1.56,0.51,2.15,2.1,2.13  c5.22-0.07,10.45-0.02,15.67-0.03c0.96,0,2.05-0.04,2.04,1.29c-0.01,1.22-1.04,1.23-1.94,1.23c-5.39,0.01-10.78,0.03-16.16-0.01  c-2.62-0.02-3.96-1.31-4.21-3.87c-0.04-0.36-0.11-0.72-0.16-1.09c-1.67,0-3.24,0-4.99,0c0,0.7,0,1.29,0,1.88c0,4.67,0,9.35,0,14.02  c0,9.73,0,19.46-0.01,29.19c0,0.96,0.19,2.23-1.28,2.2c-1.45-0.03-1.22-1.29-1.22-2.25c-0.01-14.84-0.01-29.69,0-44.53  c0-2.51,0.56-3.05,3.13-3.05c1.47,0,2.93,0,4.46,0c0-0.96,0-1.71,0-2.63c-2.37,0-4.67-0.02-6.96,0.01  c-2.17,0.02-3.25,1.08-3.25,3.25c-0.01,21.77-0.01,43.54,0,65.31c0,2.07,1.06,3.13,3.15,3.2c1.65,0.05,3.3,0.02,4.95,0.02  c14.02,0,28.04,0,42.06,0c2.58,0,3.67-0.9,3.68-3.15c0.03-11.76,0-23.53,0.03-35.29c0-1.29-0.54-1.45-1.63-1.25  c-1.22,0.22-1.02,1.08-1.02,1.88c0,10.61,0,21.22,0,31.83c0,2.93-0.41,3.34-3.33,3.34c-13.96,0-27.93,0-41.89,0  c-0.49,0-1.11,0.15-1.46-0.08c-0.7-0.48-1.77-1.14-1.8-1.77c-0.18-3.4-0.13-6.81-0.04-10.22c0.01-0.41,0.81-1.19,1.08-1.13  c0.5,0.12,1.13,0.67,1.27,1.16c0.22,0.76,0.09,1.63,0.09,2.46c0,2.34,0,4.67,0,6.98c14.69,0,29.12,0,43.58,0  C58.92,68.13,58.92,57.09,58.92,45.94z M61.41,22.83c0.16,0.09,0.31,0.18,0.47,0.27c0.72-0.76,1.91-1.43,2.06-2.29  c0.32-1.75,0.13-3.61,0.06-5.42c-0.05-1.37-0.86-2.44-2.17-2.52c-2.66-0.17-5.33-0.05-8.01-0.05c0,0.91,0,1.66,0,2.57  c1.71,0,3.35-0.02,4.98,0c1.92,0.02,2.56,0.65,2.59,2.56C61.43,19.59,61.41,21.21,61.41,22.83z"></path>	<path class="st0" d="M68.17,34.86c1.7-1.77,3.18-3.31,4.67-4.85c0.62-0.64,1.33-1.17,2.11-0.36c0.75,0.78,0.28,1.49-0.37,2.13  c-1.57,1.54-3.09,3.13-4.67,4.65c-1.19,1.15-2.24,1.15-3.46,0.01c-0.96-0.9-1.97-1.78-2.76-2.82c-0.36-0.47-0.56-1.52-0.28-1.93  c0.63-0.9,1.44-0.4,2.06,0.27C66.29,32.85,67.11,33.73,68.17,34.86z"></path>	<path class="st0" d="M25.67,65.2c0-1.32-0.04-2.63,0.01-3.95c0.11-2.6,2.12-4.67,4.68-4.87c2.48-0.19,5.05,1.47,5.23,3.99  c0.24,3.52-0.07,7.08-0.12,10.63c-0.01,0.5,0.18,1,0.18,1.5c0,0.45,0,1.05-0.27,1.31c-0.27,0.27-0.87,0.26-1.33,0.27  c-0.59,0.02-1.23-0.23-1.77-0.07c-3.3,0.93-6.46-1.27-6.6-4.68C25.62,67.94,25.67,66.57,25.67,65.2z M30.87,71.64  c-0.04-0.85-0.35-2.05-0.05-2.23c0.62-0.37,1.56-0.2,2.49-0.25c0-2.34,0.03-4.97-0.01-7.6c-0.03-1.61-1.06-2.65-2.52-2.67  c-1.47-0.02-2.57,0.96-2.63,2.58c-0.08,2.52-0.08,5.05-0.01,7.57C28.2,70.81,29.1,71.56,30.87,71.64z"></path>	<path class="st0" d="M38.52,65.32c0-1.48-0.09-2.97,0.02-4.44c0.19-2.55,2.44-4.52,5.01-4.51c2.57,0.01,4.88,2.03,4.96,4.53  c0.02,0.57-0.63,1.16-0.97,1.74c-0.47-0.42-1.18-0.77-1.35-1.29c-0.59-1.81-1.42-2.6-2.95-2.44c-1.47,0.16-2.29,1.22-2.31,3.07  c-0.02,2.25-0.03,4.5,0,6.75c0.03,1.73,1,2.88,2.44,3c1.35,0.11,2.28-0.81,2.82-2.46c0.18-0.54,0.86-0.91,1.31-1.35  c0.36,0.57,1.03,1.15,1.03,1.72c-0.02,2.43-2.25,4.46-4.76,4.54c-2.7,0.09-5.01-1.82-5.22-4.43C38.43,68.29,38.52,66.8,38.52,65.32  z"></path>	<path class="st0" d="M25.59,51.14c-0.93,0-1.86-0.01-2.79,0c-1.4,0.01-2.2-0.73-2.26-2.07c-0.09-1.97-0.07-3.94-0.01-5.91  c0.05-1.35,0.85-2.11,2.22-2.13c1.92-0.03,3.84-0.05,5.75,0.01c1.45,0.04,2.18,0.86,2.18,2.32c-0.01,1.81,0.03,3.62-0.01,5.42  c-0.03,1.68-0.72,2.32-2.45,2.36C27.34,51.16,26.46,51.14,25.59,51.14z M28.1,48.61c0-1.74,0-3.39,0-5.02c-1.74,0-3.35,0-4.99,0  c0,1.72,0,3.33,0,5.02C24.81,48.61,26.42,48.61,28.1,48.61z"></path>	<path class="st0" d="M25.61,28.23c0.99,0,1.97-0.02,2.96,0.01c1.3,0.04,2.05,0.74,2.09,2.05c0.05,1.97,0.03,3.94,0.01,5.91  c-0.02,1.31-0.74,2.07-2.02,2.12c-2.02,0.07-4.05,0.05-6.08,0c-1.23-0.03-1.96-0.78-2.01-1.97c-0.09-2.02-0.09-4.05-0.01-6.08  c0.05-1.26,0.79-2.01,2.12-2.04C23.64,28.21,24.62,28.23,25.61,28.23z M28.13,30.77c-1.77,0-3.38,0-5.02,0c0,1.73,0,3.34,0,5.03  c1.7,0,3.31,0,5.02,0C28.13,34.12,28.13,32.51,28.13,30.77z"></path>	<path class="st0" d="M43.33,43.49c-2.75,0-5.49-0.01-8.24,0.01c-0.92,0.01-1.82-0.25-1.67-1.27c0.07-0.47,1.02-1.16,1.58-1.17  c5.71-0.09,11.42-0.08,17.13,0.01c0.53,0.01,1.05,0.8,1.58,1.22c-0.55,0.4-1.09,1.13-1.66,1.15  C49.16,43.55,46.25,43.49,43.33,43.49z"></path>	<path class="st0" d="M37.07,15.4c3.24,0,6.48,0.01,9.71-0.01c0.89,0,1.75,0.07,1.78,1.19c0.02,1.13-0.83,1.25-1.73,1.25  c-6.48-0.01-12.95,0-19.43,0c-0.89,0-1.75-0.14-1.7-1.27c0.05-1.12,0.94-1.17,1.81-1.17C30.7,15.41,33.88,15.4,37.07,15.4z"></path>	<path class="st0" d="M43.5,30.65c-2.8,0-5.6-0.01-8.39,0.01c-0.92,0.01-1.82-0.22-1.68-1.25c0.07-0.46,1.03-1.13,1.6-1.14  c5.71-0.08,11.41-0.08,17.12,0c0.53,0.01,1.05,0.78,1.58,1.2c-0.55,0.39-1.09,1.1-1.66,1.13C49.21,30.72,46.35,30.65,43.5,30.65z"></path>	<path class="st0" d="M40.86,33.29c1.97,0,3.95,0,5.92,0c0.89,0,1.74,0.14,1.76,1.24c0.02,1.1-0.82,1.3-1.72,1.3  c-3.89,0-7.79,0.06-11.68-0.05c-0.61-0.02-1.2-0.78-1.81-1.2c0.59-0.43,1.15-1.17,1.76-1.23C37.01,33.19,38.94,33.29,40.86,33.29z"></path>	<path class="st0" d="M41.03,48.61c-1.97,0-3.95,0-5.92,0c-0.9,0-1.86-0.23-1.68-1.26c0.09-0.5,1.11-1.16,1.73-1.17  c3.89-0.11,7.78-0.05,11.68-0.06c0.91,0,1.73,0.16,1.72,1.27c-0.01,1.12-0.89,1.23-1.77,1.23C44.87,48.61,42.95,48.61,41.03,48.61z  "></path>	<path class="st0" d="M38.82,8.95c-0.76,0.56-1.26,1.19-1.61,1.12c-0.49-0.11-0.86-0.74-1.29-1.15c0.43-0.39,0.83-1,1.32-1.09  C37.59,7.77,38.08,8.4,38.82,8.95z"></path></g></svg>