<svg xmlns="http://www.w3.org/2000/svg" xmlns:xlink="http://www.w3.org/1999/xlink" id="Layer_1" x="0px" y="0px" viewBox="0 0 148.8 144.04" style="enable-background:new 0 0 148.8 144.04;" xml:space="preserve"><style type="text/css">	.st0{fill:#FFFFFF;}</style><g>	<path class="st0" d="M131.91,65.85c0.67,0.3,1.31,0.74,2.01,0.88c3.91,0.78,7.82,1.59,11.77,2.18c2.38,0.36,3.12,1.57,3.12,3.85  c-0.05,22.47-0.02,44.94-0.03,67.41c0,3.39-0.52,3.86-4.12,3.86c-16.48,0.01-32.96,0-49.45,0c-15.58,0-31.17,0.02-46.75-0.03  c-1.67-0.01-3.4-0.22-4.98-0.71c-13.33-4.13-26.63-8.4-39.96-12.52c-2.45-0.76-3.53-1.91-3.5-4.65  c0.14-13.78,0.11-27.56,0.02-41.34C0,82.61,0.76,81.29,2.54,80.13c5.26-3.44,10.43-7.03,15.63-10.57c0.8-0.54,1.55-1.16,2.3-1.72  c-2.72-1.87-5.39-3.44-7.75-5.39C0.63,52.5-3.27,35.58,3.07,21.18C9.31,7.04,24.44-1.66,39.47,0.26  c15.91,2.03,28.51,13.99,30.77,29.5c0.42,2.88,1.38,4.06,4.34,4.71c19.87,4.36,39.68,9.02,59.53,13.45  c2.65,0.59,3.78,1.72,3.66,4.42c-0.14,2.99-0.01,5.99-0.04,8.99c-0.04,3.57-0.77,4.16-4.3,3.66c-0.37-0.05-0.75-0.01-1.13-0.01  C132.17,65.28,132.04,65.56,131.91,65.85z M143.8,139.14c0-22.03,0-43.76,0-65.42c-0.33-0.17-0.49-0.31-0.67-0.34  c-26.41-4.79-52.82-9.58-79.25-14.28c-0.95-0.17-2.21,0.45-3.09,1.05c-3.28,2.25-6.31,4.9-9.72,6.89  c-1.82,1.06-2.49,2.01-2.48,4.07c0.07,21.68,0.04,43.35,0.05,65.03c0,0.96,0.09,1.92,0.13,2.89c8.5,0,16.74,0,25.25,0  c0-1.26,0-2.34,0-3.42c0-10.09,0.04-20.18-0.03-30.27c-0.02-2.74,0.95-5.78-1.96-7.9c-0.4-0.29-0.36-1.31-0.38-1.99  c-0.05-1.8-0.06-3.6-0.01-5.39c0.09-3.12,0.91-3.85,4.1-3.51c16.68,1.78,33.36,3.58,50.03,5.44c1.01,0.11,2.77,0.77,2.8,1.24  c0.17,3.31,0.07,6.65-0.16,9.96c-0.09,1.25-1.12,2.46-1.13,3.69c-0.1,9.79-0.05,19.58-0.05,29.37c0,0.95,0,1.9,0,2.9  C132.97,139.14,138.25,139.14,143.8,139.14z M35.45,4.92C18.62,4.91,4.92,18.54,4.88,35.35c-0.04,16.79,13.64,30.59,30.4,30.67  C52.17,66.09,66.03,52.28,66,35.38C65.98,18.57,52.29,4.93,35.45,4.92z M10.32,127.58c0-1.01,0.02-1.8,0-2.59  c-0.2-8.66-0.37-17.32-0.63-25.98c-0.06-2.08,0.57-3.41,2.71-3.99c6.54-1.78,13.05-3.69,19.6-5.46c2.77-0.75,4.06,0.21,3.92,3.13  c-0.15,3.22-1.04,6.41-1.09,9.62c-0.15,10.48-0.08,20.97-0.01,31.46c0,0.7,0.56,1.8,1.13,2.02c2.47,0.94,5.03,1.62,7.73,2.45  c0-22.97,0-45.51,0-68.11c-5.17,0-10.22-0.04-15.27,0.03c-1.19,0.02-2.58,0.12-3.52,0.73c-6.1,3.99-12.06,8.18-18.14,12.19  c-1.42,0.94-1.92,1.96-1.91,3.64c0.07,11.58,0.04,23.17,0.04,34.75C4.88,126.36,4.88,126.36,10.32,127.58z M79.04,139.02  c6.91,0,13.64,0,20.38,0c0-12.63,0-25.06,0-37.65c-6.85-0.65-13.54-1.28-20.38-1.93C79.04,112.93,79.04,125.95,79.04,139.02z   M104.62,101.9c0,12.71,0,24.93,0,37.06c6.04,0,11.86,0,17.58,0c0-11.89,0-23.53,0-35.36C116.28,103.03,110.54,102.48,104.62,101.9  z M132.92,59.99c0-1.46-0.14-2.47,0.03-3.42c0.55-3.09-0.74-4.27-3.78-4.91c-12.08-2.56-24.1-5.4-36.15-8.14  c-7.34-1.66-14.69-3.31-22.13-4.99c-0.66,3.08-1.26,5.86-1.91,8.88C90.21,51.6,111.29,55.74,132.92,59.99z M29.78,133.92  c0-10.81,0-21.25,0-31.96c-2.22,0.52-4.21,0.98-6.25,1.46c0,9.57,0,18.94,0,28.5C25.5,132.55,27.46,133.18,29.78,133.92z   M76.95,91.59c-1.1,2.49,0.23,2.76,1.78,2.91c6.35,0.62,12.69,1.28,19.04,1.9c8.7,0.85,17.41,1.68,26.11,2.51  c0.18-0.28,0.37-0.56,0.55-0.84c-0.65-0.52-1.26-1.4-1.97-1.49c-6.03-0.77-12.07-1.42-18.11-2.08  C95.25,93.52,86.14,92.56,76.95,91.59z M18.38,130.05c0-8.59,0-16.97,0-25.52c-1.19,0.31-2.12,0.55-3.24,0.85  c0,7.16,0.1,14.22-0.05,21.27C15.03,129.11,15.89,130.14,18.38,130.05z M118.33,63.97c0.22-0.33,0.44-0.67,0.66-1  c-0.71-0.39-1.39-0.99-2.15-1.15c-6.63-1.39-13.27-2.71-19.91-4.02c-4.44-0.87-8.89-1.69-13.34-2.53  c-0.19,0.31-0.37,0.62-0.56,0.94c0.7,0.6,1.32,1.6,2.1,1.74C96.18,60.02,107.26,61.98,118.33,63.97z M14.6,99.48  c0.08,0.3,0.15,0.59,0.23,0.89c5.12-1.15,10.24-2.28,15.34-3.51c0.44-0.11,0.7-0.95,1.05-1.45c-0.17-0.16-0.33-0.32-0.5-0.48  C25.34,96.44,19.97,97.96,14.6,99.48z M78.23,56.45c0.02-2.58-0.65-2.93-5.28-2.97C72.74,56.08,73.15,56.32,78.23,56.45z"></path>	<path class="st0" d="M26.63,49.52c1.01,0.07,2.01,0.21,3.02,0.21c6.89,0.02,13.77,0.01,20.66,0.01c1.73,0,3.7-0.12,3.72,2.32  c0.03,2.37-1.85,2.49-3.63,2.49c-7.48,0-14.97-0.01-22.45,0.01c-2.59,0.01-4.79-0.73-5.91-3.24c-1.04-2.32-0.52-4.41,1.19-6.34  c0.46-0.52,0.57-1.62,0.41-2.36c-1.39-6.53-2.82-13.05-4.42-19.53c-0.19-0.79-1.41-1.72-2.26-1.86c-1.61-0.26-3.11-0.44-3.12-2.42  c-0.02-2.15,1.57-2.44,3.32-2.5c5.51-0.17,5.77-0.18,6.7,5.16c0.46,2.62,1.6,3.1,3.98,3.06c7.58-0.14,15.17-0.08,22.75-0.04  c5.28,0.02,7.29,2.55,6.16,7.62c-0.91,4.08-1.97,8.14-2.68,12.26c-0.52,2.99-1.84,4.22-4.98,4.12c-6.48-0.2-12.97-0.07-19.46-0.05  c-1,0-2,0.14-3,0.22C26.63,48.95,26.63,49.24,26.63,49.52z M25.73,29.51c0.98,4.4,1.84,8.57,2.89,12.7  c0.15,0.58,1.2,1.32,1.84,1.33c6.17,0.1,12.34,0.06,18.75,0.06c1.06-4.75,2.08-9.33,3.13-14.1C43.27,29.51,34.64,29.51,25.73,29.51  z"></path>	<path class="st0" d="M93.7,50.48c-5.75-1.25-10.83-2.24-15.83-3.55c-0.82-0.22-1.28-1.82-1.91-2.78c1.01-0.57,2.12-1.76,3.01-1.61  c4.9,0.82,9.78,1.86,14.59,3.1c0.92,0.24,2.12,1.69,2.12,2.59C95.67,49.06,94.25,49.89,93.7,50.48z"></path>	<path class="st0" d="M123.68,56.82c-5.09-1.09-9.58-1.95-13.99-3.12c-0.76-0.2-1.72-1.83-1.59-2.62c0.12-0.74,1.69-1.9,2.45-1.78  c4.51,0.72,8.99,1.65,13.41,2.79c0.78,0.2,1.71,1.77,1.65,2.63C125.54,55.52,124.25,56.24,123.68,56.82z"></path></g></svg>