<svg xmlns="http://www.w3.org/2000/svg" xmlns:xlink="http://www.w3.org/1999/xlink" id="Layer_1" x="0px" y="0px" viewBox="0 0 89.63 89.64" style="enable-background:new 0 0 89.63 89.64;" xml:space="preserve"><style type="text/css">	.st0{fill:#4372B7;}</style><g>	<path class="st0" d="M41.76,16.31c-0.87,0.32-1.95,0.41-2.56,1c-1.55,1.52-3.12,1.95-4.59,0.92c-1.78-1.25-2.39-3.2-1.24-5  c1.12-1.74,2.48-3.35,3.9-4.87c0.94-1.01,0.88-1.73,0.15-2.82c-0.59-0.88-0.79-2.01-1.17-3.03c1.2-0.18,2.56-0.81,3.58-0.46  c2.1,0.73,4,0.33,6.05,0.04c4.27-0.6,8.51,2.58,9.26,6.87c0.29,1.64,0.16,3.35,0.34,5.01c0.24,2.23,0.46,4.48,0.94,6.67  c0.29,1.35,0.07,2.1-1.24,2.54c-0.86,0.29-1.69,0.69-2.61,1.07c0.37,1.51,0.55,2.83,1.99,3.75c1.56,1.01,2.42,5.35,1.52,7.06  c-0.23,0.43-1.02,0.78-1.55,0.79c-6.55,0.05-13.09,0.03-19.64,0.03c-1.15,0-1.72-0.52-1.65-1.7c0.11-1.93-0.62-4.22,1.11-5.58  c1.6-1.26,1.94-2.83,2.56-4.53c0.59-1.62,1.85-3.02,2.9-4.46c0.69-0.95,1.53-1.81,2.3-2.7C41.99,16.71,41.87,16.51,41.76,16.31z   M39.91,4.48c1.37,2.9,1.37,2.9-0.63,5.24c-1.01,1.19-2.02,2.38-3.02,3.58c-0.26,0.31-0.69,0.66-0.68,0.97  c0.03,0.65,0.3,1.28,0.47,1.92c0.43-0.32,1.13-0.56,1.24-0.97c0.3-1.04,0.94-1.15,1.83-1.13c0.86,0.01,1.78,0.04,2.55-0.26  c0.49-0.19,1.06-0.95,1.07-1.46c0.01-1.02-0.05-2.02,1.25-1.98c1.27,0.04,1.35,1.25,1.25,2.11c-0.37,3.01-0.53,6.1-3.17,8.3  c-0.92,0.76-1.7,1.77-2.3,2.8c-0.54,0.93-0.75,2.06-1.15,3.21c4.24,0,8.07,0,12.09,0c-1.39-3.99-1.78-7.9-1.12-11.92  c0.34-2.06,0.02-4-1.32-5.75C48,8.77,48.3,7.95,48.33,7.34c0.62,0.12,1.3,0.12,1.83,0.4c0.41,0.22,0.64,0.8,0.91,1.24  c1.38,2.35,1.09,4.88,0.88,7.43c-0.15,1.74-0.03,3.5-0.03,5.45c0.84-0.4,1.39-0.66,1.6-0.76c-0.18-3.13-0.33-5.95-0.5-8.76  c-0.06-0.98-0.08-1.97-0.28-2.93c-0.72-3.48-4-5.63-7.43-4.73C43.46,5.18,41.71,5.87,39.91,4.48z M35.82,33.29  c6.02,0,11.93,0,17.83,0c0.35-3.39-0.11-3.9-3.37-3.9c-3.7,0-7.4,0-11.1,0C35.93,29.39,35.47,29.91,35.82,33.29z"></path>	<path class="st0" d="M64.72,60.79c0.81,0.38,1.33,0.59,1.82,0.87c1.51,0.87,2.51,0.48,2.95-1.18c0.53-1.99,0.9-2.17,3.82-2.2  c1.59-0.02,2.82,0.22,3.14,2.15c0.28,1.69,1.53,2.21,2.92,1.22c1.68-1.19,2.74-0.36,3.88,0.81c1.97,2.02,2.08,2.33,1.04,4.11  c-0.88,1.51-0.49,2.57,1.25,2.9c2.12,0.4,2.17,1.89,2.16,3.54c-0.02,1.63-0.02,3.13-2.21,3.46c-1.66,0.25-2.13,1.51-1.14,2.94  c1.25,1.8,0.17,2.85-0.99,4.01c-1.12,1.12-2.15,2.11-3.88,0.96c-1.63-1.09-2.63-0.62-3.06,1.36c-0.28,1.3-1.05,1.87-2.29,1.92  c-0.69,0.03-1.39,0.01-2.08,0.01c-1.42,0.01-2.23-0.64-2.55-2.07c-0.41-1.85-1.41-2.28-2.98-1.24c-1.24,0.81-2.25,0.69-3.24-0.33  c-0.44-0.46-0.9-0.9-1.35-1.35c-1.02-1-1.12-2.02-0.3-3.25c1.01-1.52,0.54-2.65-1.27-3c-1.47-0.29-2.07-1.11-2.05-2.53  c0.01-0.58,0.02-1.16,0-1.74c-0.07-1.51,0.61-2.36,2.11-2.68c1.73-0.38,2.25-1.48,1.28-2.86c-1.03-1.46-0.67-2.58,0.52-3.63  C63.02,62.24,63.87,61.51,64.72,60.79z M63.75,64.95c1.62,3.72,0.87,5.52-2.95,7.23c0,0.57,0,1.13,0,1.67  c3.19,1.26,4.53,3.34,3.49,5.75c-0.56,1.29-0.38,2.03,0.82,2.61c3.2-1.62,5.19-0.93,6.75,2.24c0.17,0.35,0.76,0.75,1.1,0.7  c0.45-0.06,0.88-0.5,1.23-0.85c0.87-0.86,1.54-2.22,2.57-2.56c1.28-0.42,2.83-0.01,4.58,0.05c0.07-0.05,0.54-0.38,0.94-0.67  c-1.65-3.63-1.11-5.13,2.27-7.05c0.34-0.19,0.6-0.79,0.62-1.21c0.02-0.33-0.32-0.83-0.63-1c-3.3-1.71-3.89-3.37-2.35-6.85  c-1.07-1.24-1.06-1.2-2.5-0.73c-0.59,0.19-1.25,0.31-1.86,0.26c-2.28-0.2-3.38-1.74-3.95-3.74c-0.65,0-1.22,0-1.76,0  c-1.38,3.74-3.17,4.48-7.25,2.99C64.49,64.16,64.1,64.57,63.75,64.95z"></path>	<path class="st0" d="M16.23,87.66c-1.51,0.08-3.21,0.09-3.8-2.07c-0.03-0.1-0.14-0.18-0.23-0.25c-2.65-2.17-2.92-3.85-1.39-6.99  c0.3-0.61,0.12-1.59-0.13-2.29c-0.38-1.07-0.97-2.08-1.55-3.08c-2.11-3.62-1.36-8.11,1.85-10.81c3.18-2.68,7.83-2.7,11-0.05  c3.22,2.69,4.02,7.22,1.94,10.81c-0.58,1-1.16,2-1.6,3.06c-0.41,1-0.54,1.91,0.26,3.02c1.32,1.83,0.37,5.06-1.54,6.24  c-0.19,0.12-0.47,0.25-0.51,0.42C19.92,87.89,18.14,87.67,16.23,87.66z M17.7,77.58c1.25,0.42,1.64,0.05,1.96-0.95  c0.53-1.63,1.21-3.23,2.04-4.73c1.51-2.72,1.07-5.87-1.25-7.86c-2.28-1.95-5.67-1.93-7.96,0.05c-2.31,1.99-2.7,5.1-1.16,7.86  c0.84,1.5,1.57,3.1,2.04,4.74c0.32,1.13,0.8,1.22,1.88,0.92c0-1.52-0.09-3.07,0.03-4.61c0.12-1.55-0.24-2.64-1.8-3.27  c-0.84-0.33-1.83-0.9-1.1-2.08c0.65-1.05,1.56-0.58,2.24-0.02c1.34,1.09,2.58,1,3.85-0.06c0.17-0.14,0.41-0.33,0.6-0.31  c0.52,0.05,1.37,0.08,1.47,0.34c0.17,0.47,0.06,1.25-0.26,1.64c-0.42,0.5-1.19,0.69-1.73,1.12c-0.36,0.29-0.79,0.76-0.81,1.16  C17.66,73.53,17.7,75.55,17.7,77.58z M20.43,82.65c0-0.74,0-1.51,0-2.43c-2.25,0-4.37,0-6.49,0c-0.45,0-0.9,0.05-1.41,0.08  c0,0.86,0,1.63,0,2.52c1.75-0.21,2.55,0.6,2.46,2.25c1.06,0,2.01,0,2.92,0C18.32,83.11,18.32,83.11,20.43,82.65z"></path>	<path class="st0" d="M53.7,55.12c1.45,4.18-1,5.93-4.22,7.92c-3.38,2.1-5.78,1.92-9.18-0.01c-3.46-1.96-4.53-4.08-4.55-7.97  c-0.03-3.95,1.21-5.99,4.6-7.96c3.41-1.98,5.83-2.01,9.18,0.05C52.77,49.15,55.12,50.97,53.7,55.12z M50.23,50.58  c-1.72-1-3.15-1.86-4.61-2.67c-0.31-0.17-0.82-0.29-1.08-0.15c-1.59,0.84-3.14,1.77-4.95,2.81c1.74,1.01,3.16,1.89,4.63,2.65  c0.38,0.2,1.03,0.21,1.4,0.01C47.09,52.47,48.5,51.59,50.23,50.58z M43.69,61.96c0-2.05,0.02-3.76-0.02-5.47  c-0.01-0.3-0.15-0.75-0.37-0.88c-1.53-0.95-3.1-1.83-4.92-2.88c0,2.09-0.03,3.76,0.02,5.42c0.01,0.35,0.21,0.84,0.48,1  C40.37,60.08,41.92,60.93,43.69,61.96z M51.47,52.72c-1.84,1.06-3.38,1.93-4.88,2.85c-0.24,0.15-0.42,0.56-0.43,0.85  c-0.04,1.75-0.02,3.5-0.02,5.53c1.75-1,3.2-1.8,4.61-2.68c0.33-0.21,0.67-0.69,0.69-1.06C51.51,56.51,51.47,54.8,51.47,52.72z"></path>	<path class="st0" d="M34.92,82.69c0.39,0.93,0.82,1.59,0.9,2.29c0.06,0.5-0.35,1.06-0.54,1.6c-0.53-0.2-1.35-0.24-1.55-0.62  c-0.9-1.67-1.71-3.41-2.34-5.2c-0.16-0.45,0.33-1.47,0.79-1.73c1.5-0.85,3.09-1.57,4.73-2.14c0.51-0.18,1.26,0.31,1.9,0.49  c-0.34,0.58-0.57,1.28-1.04,1.71c-0.49,0.44-1.22,0.62-1.84,0.91c-0.02,0.19-0.05,0.38-0.07,0.57c2.49,0.45,4.97,1.27,7.46,1.25  c3.25-0.03,6.5-0.7,9.74-1.17c0.92-0.13,1.94-0.62,2.31,0.65c0.33,1.15-0.68,1.42-1.52,1.69c-5.67,1.82-11.36,1.85-17.08,0.24  C36.22,83.08,35.69,82.92,34.92,82.69z"></path>	<path class="st0" d="M25.73,32.6c-0.71-0.11-1.51-0.08-2.16-0.37c-0.46-0.2-0.97-0.81-1.01-1.28c-0.03-0.32,0.72-1.03,1.09-1.01  c2.02,0.1,4.04,0.3,6.03,0.64c0.38,0.06,0.88,0.93,0.87,1.41c-0.04,1.79-0.19,3.59-0.5,5.35c-0.09,0.49-0.84,0.87-1.28,1.31  c-0.36-0.5-0.93-0.95-1.04-1.5c-0.16-0.75,0.03-1.57,0.09-2.7c-3.84,3.17-6.38,6.86-8.03,11.18c-0.45,1.18-0.77,2.42-1.08,3.65  c-0.23,0.93-0.37,2-1.66,1.71c-1.32-0.31-0.92-1.45-0.72-2.3c1.31-5.73,4.06-10.66,8.31-14.73c0.37-0.36,0.73-0.73,1.08-1.11  C25.75,32.82,25.73,32.74,25.73,32.6z"></path>	<path class="st0" d="M73.8,49.99c0.65-0.85,0.98-1.5,1.51-1.89c0.43-0.32,1.09-0.32,1.65-0.46c0.13,0.56,0.54,1.31,0.33,1.66  c-1.04,1.66-2.19,3.27-3.45,4.77c-0.27,0.32-1.35,0.35-1.79,0.08c-1.48-0.89-2.91-1.9-4.22-3.03c-0.41-0.35-0.37-1.22-0.54-1.86  c0.67-0.01,1.38-0.16,1.99,0.02c0.62,0.19,1.13,0.72,2.07,1.37c-0.25-1.27-0.36-2.11-0.59-2.91c-1.35-4.72-3.8-8.78-7.37-12.16  c-0.29-0.28-0.77-0.5-0.86-0.83c-0.16-0.58-0.08-1.22-0.1-1.84c0.57,0.02,1.38-0.19,1.67,0.11c1.73,1.77,3.49,3.55,4.97,5.53  C71.52,41.83,72.91,45.63,73.8,49.99z"></path>	<path class="st0" d="M24.29,55.08c0.56,0.75,1.24,1.34,1.14,1.57c-0.55,1.15-1.26,2.23-2.02,3.26c-0.08,0.1-1.24-0.33-1.23-0.47  c0.06-0.79,0.21-1.63,0.54-2.34C23.03,56.44,23.63,55.91,24.29,55.08z"></path>	<path class="st0" d="M17.72,55.96c-0.03,0.46,0.07,0.99-0.13,1.35c-0.21,0.39-0.68,0.8-1.09,0.86c-0.32,0.05-0.99-0.39-1.02-0.67  c-0.14-1.06-0.17-2.15-0.04-3.21c0.04-0.32,0.75-0.78,1.13-0.76c0.37,0.02,0.86,0.51,1.04,0.9C17.8,54.88,17.69,55.45,17.72,55.96z  "></path>	<path class="st0" d="M8.74,55.08c0.72,0.95,1.35,1.58,1.73,2.34c0.3,0.6,0.38,1.37,0.33,2.05c-0.01,0.18-1.16,0.54-1.24,0.43  c-0.74-1.03-1.43-2.12-1.96-3.28C7.5,56.39,8.18,55.82,8.74,55.08z"></path>	<path class="st0" d="M28,65.08c-0.46-0.39-0.91-0.61-1.09-0.96c-0.15-0.29-0.14-0.94,0.06-1.08c0.92-0.65,1.9-1.25,2.92-1.71  c0.25-0.11,0.88,0.25,1.11,0.56c0.19,0.24,0.2,0.94,0.01,1.09C30.09,63.73,29.07,64.35,28,65.08z"></path>	<path class="st0" d="M6.85,64.19c-0.53,0.21-1.19,0.73-1.56,0.58c-1.18-0.49-2.27-1.2-3.32-1.94c-0.11-0.08,0.2-1.12,0.55-1.38  c0.82-0.58,3.63,1.1,3.69,2.1C6.43,63.76,6.64,63.98,6.85,64.19z"></path>	<path class="st0" d="M65.2,72.92c0.02-4.29,3.45-7.7,7.74-7.71c4.34-0.01,7.89,3.54,7.85,7.83c-0.04,4.22-3.57,7.74-7.79,7.76  C68.71,80.82,65.18,77.26,65.2,72.92z M67.65,73.06c0.03,2.9,2.44,5.29,5.33,5.28c2.94,0,5.43-2.53,5.37-5.45  c-0.06-2.9-2.46-5.24-5.37-5.24C69.95,67.65,67.61,70.03,67.65,73.06z"></path></g></svg>