<svg xmlns="http://www.w3.org/2000/svg" xmlns:xlink="http://www.w3.org/1999/xlink" id="Layer_1" x="0px" y="0px" viewBox="0 0 148.8 144.04" style="enable-background:new 0 0 148.8 144.04;" xml:space="preserve"><style type="text/css">	.st0{fill:#FFFFFF;}</style><g>	<path class="st0" d="M43.1,27.25c1.36,0,2.61,0,4.15,0c0,4.33,0,8.58,0,12.87c2.65,0.38,4.55,0.4,6.31-2.01  c2.44-3.33,7.44-2.91,9.88,0.56c0.93,1.33,1.84,1.71,3.32,1.66c3.47-0.09,6.94-0.05,10.41-0.07c0.16,0,0.32-0.12,0.63-0.24  c0-10.69,0-21.44,0-32.4c-0.64-0.06-1.33-0.19-2.02-0.19c-8.68-0.01-17.36-0.06-26.04,0.05c-1.05,0.01-2.1,0.85-3.14,1.31  c0.08,0.26,0.16,0.51,0.23,0.77c-1.18,0-2.36,0-3.96,0c0-1.36-0.02-2.68,0-4.01c0.03-1.67,0.92-2.52,2.57-2.53  c11.42-0.01,22.84-0.01,34.26,0c1.82,0,2.65,0.97,2.64,2.75c-0.01,1.17,0,2.34,0,3.83c3.37,0,6.55-0.16,9.7,0.08  c1.28,0.1,2.49,1.08,3.72,1.68c0.15,0.07,0.22,0.29,0.35,0.42c6.92,6.28,9.68,14.01,8.19,23.26c-0.19,1.16-0.03,2.37-0.03,3.56  c0,5.73,0,5.68-5.58,6.18c-0.73,0.06-1.58,0.69-2.06,1.3c-3.16,4.07-7.88,4.04-11.09,0c-0.55-0.7-1.71-1.27-2.59-1.29  c-5.39-0.12-10.78-0.03-16.17-0.08c-1.45-0.02-2.39,0.27-3.34,1.63c-2.58,3.69-7.67,3.84-10.25,0.23  c-1.16-1.63-2.34-1.88-4.06-1.86c-6.28,0.06-6.28,0.02-6.28-6.22c0-3.47,0.01-6.94,0.03-10.42C42.91,27.88,42.99,27.7,43.1,27.25z   M84.55,14.45c-0.29-0.22-0.58-0.44-0.87-0.66c-0.44,0.63-1.23,1.24-1.25,1.88c-0.12,3.74-0.06,7.48-0.06,11.22  c0,4.44,0,8.88,0,13.32c0.24,0.18,0.48,0.36,0.72,0.54c0.89-0.65,1.97-1.14,2.62-1.97c3.05-3.84,7.86-3.78,10.93,0.12  c0.63,0.8,1.76,1.21,3.1,2.08c0-5.84,0-10.81,0-16c-3.97,0-7.78,0.01-11.59,0c-3.15-0.02-3.59-0.47-3.61-3.69  C84.54,19,84.55,16.72,84.55,14.45z M96.81,20.46c-2.31-2.42-2.71-7.23-7.7-6.32c0,2.14,0,4.18,0,6.32  C91.78,20.46,94.29,20.46,96.81,20.46z M58.47,45.61c0.89-1.57,1.85-2.52,1.76-3.35c-0.07-0.7-1.59-1.92-2.08-1.76  c-0.84,0.28-1.81,1.41-1.92,2.28C56.16,43.44,57.34,44.26,58.47,45.61z M94.24,42.69c-1.37-1.11-2.21-2.28-2.86-2.19  c-0.87,0.12-1.98,1.11-2.25,1.96c-0.16,0.5,1.09,1.99,1.79,2.05C91.76,44.58,92.69,43.61,94.24,42.69z"></path>	<path class="st0" d="M130.81,108.32c0.96,0,1.74-0.05,2.51,0.01c4.55,0.32,8.13,3.8,8.23,8.36c0.14,6.48,0.03,12.98,0.06,19.46  c0.01,1.92-0.85,2.88-2.8,2.88c-9.87-0.01-19.74-0.01-29.61-0.01c-1.8,0-2.7-0.89-2.7-2.69c0-6.58-0.12-13.16,0.06-19.74  c0.14-5.18,3.82-7.98,10.05-8.37c-0.79-2.61-2.02-5.26-2.31-8.01c-0.32-3.05,1.35-5.62,3.81-7.51c3.77-2.89,9.11-2.61,12.6,0.58  C134.81,97.06,134.91,101.78,130.81,108.32z M137.16,134.57c0-6.14,0.1-12.04-0.05-17.94c-0.06-2.43-2.02-3.89-4.74-3.92  c-5.56-0.05-11.12-0.05-16.68,0c-3.07,0.03-4.72,1.69-4.79,4.73c-0.07,2.73-0.02,5.47-0.02,8.2c0,2.96,0,5.93,0,8.92  C119.8,134.57,128.27,134.57,137.16,134.57z M123.9,106.09c2.91,0.07,5.44-2.28,5.59-5.19c0.15-3.01-2.3-5.64-5.33-5.72  c-2.91-0.08-5.44,2.27-5.58,5.19C118.43,103.38,120.88,106.01,123.9,106.09z"></path>	<path class="st0" d="M95.96,73.37c-0.7,1.2-1.11,2.35-1.88,3.15c-2.08,2.18-2.13,4.44-0.02,6.52c0.51,0.5,1.07,1.13,1.2,1.78  c0.78,3.94-2.27,6.34-4.05,9.17c-1.14,1.81-3.23,1.67-5.22,0.91c-1.6-0.61-4.78,1.15-5.06,2.84c-0.49,3.05-2.35,4.1-5.2,4.02  c-1.37-0.04-2.74,0-4.11-0.01c-3.56-0.02-4.41-0.67-5.38-4.09c-0.46-1.61-3.51-3.23-5.18-2.74c-3.14,0.91-4.45,0.43-6.18-2.32  c-0.58-0.93-1.13-1.87-1.7-2.81c-2.28-3.81-2.24-4.11,0.89-7.44c0.97-1.03,0.7-4.32-0.44-5.34c-2.32-2.07-2.57-3.5-1.02-6.2  c0.68-1.19,1.4-2.35,2.12-3.52c1.91-3.1,2.93-3.48,6.54-2.48c1.61,0.44,4.68-1.34,4.98-3.06c0.51-2.89,2.28-3.96,5.03-3.89  c1.37,0.04,2.74,0,4.11,0.01c3.76,0.02,4.02,0.64,5.71,4.13c0.66,1.38,3.29,2.75,4.85,2.58c3.57-0.4,4.62-0.38,6.52,2.78  C93.65,69.28,94.74,71.25,95.96,73.37z M90.8,86.53c-3.93-3.73-3.93-8.83-0.12-13.64c-0.83-1.35-1.67-2.73-2.48-4.06  c-5.1,1.71-10.4-1.21-12.05-6.49c-1.7,0-3.42,0-5.12,0c-1.7,5.25-6.45,7.86-12.17,6.66c-0.81,1.35-1.65,2.74-2.45,4.08  c3.99,3.79,3.99,9.61,0.03,13.43c0.85,1.41,1.72,2.86,2.57,4.26c5.08-1.72,10.3,1.16,12.05,6.49c1.7,0,3.42,0,5.12,0  c1.68-5.25,6.45-7.87,12.16-6.67C89.11,89.3,89.91,87.99,90.8,86.53z"></path>	<path class="st0" d="M35.26,118.53c0.98,1,1.99,2.02,3.14,3.2c2.46-2.8,4.27-1.47,6.15,0.6c2.15,2.36,4.46,4.57,6.76,6.79  c1.58,1.52,1.61,2.91,0.01,4.43c-1.52,1.44-2.99,2.95-4.46,4.44c-1.25,1.26-2.5,1.39-3.8,0.1c-2.84-2.84-5.72-5.64-8.5-8.53  c-1.51-1.57-1.4-1.97,0.63-4.84c-0.99-0.99-2.01-2.01-2.99-2.99c-8.76,5.53-18.59,3.6-23.87-4.19c-4.48-6.61-3.44-15.54,2.33-21.01  c5.82-5.52,14.71-6.07,21.1-1.32C38.97,100.57,40.25,108.92,35.26,118.53z M22.1,120.42c6.66-0.02,12.02-5.39,12-12.01  c-0.02-6.55-5.55-12.03-12.09-12c-6.58,0.03-12.01,5.51-11.98,12.09C10.05,115.15,15.41,120.44,22.1,120.42z M41.03,125.34  c-0.68,0.76-1.33,1.47-1.99,2.21c2.04,2.03,3.95,3.93,5.55,5.52c0.89-0.48,1.82-1,2.57-1.4C44.94,129.37,43.11,127.49,41.03,125.34  z"></path>	<path class="st0" d="M22.83,85.72c-1.32,0.43-2.52,0.81-3.7,1.2c-5.99-15.2-2.03-40.72,13.59-55.31c0.88,1,1.76,2.01,2.67,3.06  C22.27,49.32,18.07,66.35,22.83,85.72z"></path>	<path class="st0" d="M128.71,84.65c-1.1-0.27-2.08-0.5-3.04-0.75c-0.26-0.07-0.49-0.23-0.89-0.44  c3.88-18.43-0.52-34.74-13.18-48.84c0.95-1.02,1.82-1.94,2.67-2.85C127.42,43.28,134.04,66.69,128.71,84.65z"></path>	<path class="st0" d="M57.58,125.87c0.51-1.57,0.9-2.77,1.35-4.14c13.85,3.66,27.06,2.24,39.92-4.43c0.7,1.28,1.33,2.43,2.1,3.82  C87.05,128.41,72.82,129.97,57.58,125.87z"></path>	<path class="st0" d="M47.17,11.99c0,1.43,0,2.68,0,4.07c-3.62,0-7.12,0-10.75,0c0-1.38,0-2.63,0-4.07  C39.92,11.99,43.43,11.99,47.17,11.99z"></path>	<path class="st0" d="M51.56,20.76c0,1.42,0,2.67,0,4.06c-3.61,0-7.12,0-10.75,0c0-1.37,0-2.62,0-4.06  C44.3,20.76,47.81,20.76,51.56,20.76z"></path>	<path class="st0" d="M73.64,71.02c4.88,0.03,8.82,4.07,8.73,8.96c-0.09,4.76-4.05,8.62-8.82,8.59c-4.88-0.03-8.82-4.07-8.73-8.96  C64.91,74.85,68.86,70.99,73.64,71.02z M77.95,79.76c-0.02-2.38-2.01-4.34-4.39-4.33c-2.38,0.01-4.35,2.01-4.33,4.39  c0.02,2.38,2.01,4.35,4.39,4.33C75.99,84.14,77.97,82.13,77.95,79.76z"></path></g></svg>