<svg xmlns="http://www.w3.org/2000/svg" xmlns:xlink="http://www.w3.org/1999/xlink" id="Layer_1" x="0px" y="0px" viewBox="0 0 89.63 89.64" style="enable-background:new 0 0 89.63 89.64;" xml:space="preserve"><style type="text/css">	.st0{fill:#4372B7;}</style><g>	<path class="st0" d="M49.97,61.35c2.9,0,5.71-0.15,8.5,0.07c1.2,0.09,2.34,0.93,3.51,1.44c0.05,0.02,0.07,0.08,0.11,0.12  c4.69,4.99,4.69,4.99,4.69,11.88c0,2.1-0.07,4.19,0.02,6.29c0.07,1.61-0.61,2.23-2.16,2.07c-0.38-0.04-0.77,0.01-1.16-0.01  c-1.44-0.08-2.53,0.03-3.51,1.57c-1.71,2.68-5.57,2.26-7.36-0.47c-0.32-0.49-1.01-1.05-1.54-1.06c-4.85-0.08-9.7-0.05-14.52-0.05  c-3.28,4.5-6.57,4.52-9.18,0c-0.94,0-1.93-0.02-2.92,0c-1.1,0.02-1.63-0.48-1.62-1.59c0.01-7.22-0.01-14.45,0.02-21.67  c0.01-1.69,0.9-2.55,2.58-2.56c7.28-0.03,14.56-0.03,21.84,0C49.18,57.4,49.65,58.12,49.97,61.35z M27.39,80.84  c2.4-4.34,5.93-4.52,8.71-0.52c0.16,0.23,0.46,0.52,0.7,0.52c3.51,0.03,7.03,0.02,10.57,0.02c0-7.15,0-14.11,0-21.06  c-7.45,0-14.76,0-22.07,0c0,7.07,0,14.04,0,21.03C26.05,80.84,26.66,80.84,27.39,80.84z M64.35,71.89c-2.89,0-5.69-0.04-8.49,0.02  c-1.42,0.03-2.01-0.53-1.98-1.96c0.05-2.03,0.01-4.06,0.01-6.18c-1.41,0-2.64,0-3.93,0c0,5.72,0,11.36,0,16.97  c1.29,0.28,2.09,0.16,2.8-1.11c1.53-2.72,5.64-3,7.21-0.37c1.2,2.02,2.65,1.6,4.36,1.51c0-0.61,0-1.13,0-1.66  c-0.11,0.09-0.22,0.18-0.34,0.27c-0.63-0.53-1.26-1.06-1.88-1.59c0.69-0.55,1.39-1.1,2.22-1.76C64.35,74.91,64.35,73.5,64.35,71.89  z M64.75,69.45c-1.43-1.61-2.7-2.86-3.75-4.27c-1.27-1.71-2.86-1.73-4.66-1.33c0,1.89,0,3.69,0,5.6  C59.03,69.45,61.64,69.45,64.75,69.45z M58.7,82.04c0.01-1.22-0.95-2.2-2.19-2.16c-1.29,0.05-2.03,0.75-2.12,2.04  c-0.09,1.23,0.87,2.24,2.08,2.28C57.66,84.23,58.69,83.23,58.7,82.04z M34.07,82.04c0.01-1.19-0.99-2.19-2.21-2.16  c-1.31,0.04-2.01,0.8-2.13,2.04c-0.12,1.19,0.91,2.24,2.1,2.27C33.01,84.23,34.06,83.21,34.07,82.04z"></path>	<path class="st0" d="M3.05,39.35c0-4.52,0.04-9.05-0.02-13.57c-0.02-1.43,0.51-1.95,1.94-1.94c5.51,0.05,11.03-0.02,16.55,0.06  c0.77,0.01,1.61,0.5,2.29,0.97c2.97,2.06,3.9,4.83,3.71,8.5c-0.33,6.38-0.09,12.79-0.09,19.19c0,2.12-0.15,2.27-2.26,2.27  c-6.67,0.01-13.35-0.03-20.02,0.03c-1.57,0.01-2.15-0.5-2.12-2.1C3.11,48.29,3.05,43.82,3.05,39.35z M5.48,26.27  c0,8.81,0,17.45,0,26.08c6.57,0,13.04,0,19.48,0c0-7.47,0-14.78,0-21.98c-1.25-0.25-2.73-0.13-3.36-0.79  c-0.64-0.67-0.43-2.13-0.61-3.31C15.84,26.27,10.72,26.27,5.48,26.27z"></path>	<path class="st0" d="M72.53,53.79c-0.97,0-1.53-0.04-2.07,0.01c-1.16,0.09-1.66-0.45-1.87-1.58c-0.39-2.06-1.38-2.48-3.07-1.32  c-1,0.69-1.78,0.72-2.58-0.23c-0.39-0.46-0.82-0.9-1.29-1.29c-1.4-1.17-2.29-2.33-0.71-4.1c0.69-0.77-0.02-2.2-1.16-2.3  c-1.97-0.17-2.34-1.27-2.15-2.92c0.05-0.44,0.05-0.89,0-1.32c-0.18-1.69,0.13-2.88,2.21-3.03c1.17-0.09,1.72-1.54,0.95-2.49  c-1.14-1.4-0.9-2.45,0.43-3.48c0.43-0.34,0.84-0.73,1.17-1.17c1.06-1.38,2.13-1.68,3.59-0.46c0.94,0.78,2.3,0.21,2.44-1.04  c0.2-1.91,1.2-2.41,2.91-2.18c0.49,0.07,1,0.06,1.49,0c1.68-0.21,2.72,0.24,2.89,2.18c0.11,1.27,1.55,1.78,2.6,0.94  c1.36-1.1,2.35-0.83,3.34,0.43c0.41,0.52,0.89,0.99,1.4,1.4c1.21,0.96,1.42,1.91,0.41,3.21c-0.94,1.22-0.39,2.53,1.16,2.72  c1.57,0.19,2.1,0.96,1.93,2.43c-0.06,0.54-0.07,1.11,0,1.65c0.21,1.77-0.17,2.96-2.29,3.16c-1.21,0.12-1.69,1.53-0.88,2.51  c1.18,1.43,0.81,2.44-0.48,3.46c-0.47,0.37-0.92,0.81-1.28,1.29c-1,1.31-2.03,1.45-3.35,0.38c-0.88-0.71-2.43-0.3-2.49,0.69  C75.63,53.95,74.02,54.01,72.53,53.79z M64.32,48.82c0.52-0.33,0.88-0.57,1.26-0.78c1.13-0.62,4.65,0.48,4.82,1.71  c0.27,1.99,1.41,1.86,2.79,1.59c1.33-3.34,3.4-4.18,6.62-2.7c0.58-0.51,1.15-1.01,1.74-1.53c-0.32-0.51-0.57-0.87-0.78-1.25  c-0.63-1.12,0.47-4.67,1.69-4.82c2.09-0.27,1.88-1.46,1.66-2.84c-3.37-1.08-4.35-3.53-2.66-6.57c-0.53-0.57-1.09-1.16-1.6-1.71  c-3.06,1.79-5.43,0.81-6.64-2.56c-0.8,0-1.59,0-2.36,0c-0.78,3.22-3.32,4.23-6.38,2.77c-0.61,0.53-1.19,1.03-1.79,1.54  c0.13,0.24,0.22,0.44,0.34,0.62c1.23,1.98,0.08,4.89-2.11,5.66c-0.42,0.15-0.77,0.87-0.91,1.39c-0.19,0.73,0,1.29,0.98,1.54  c0.67,0.17,1.38,0.8,1.75,1.42c0.93,1.54,1.64,3.2-0.06,4.63C63.32,47.66,63.81,48.23,64.32,48.82z"></path>	<path class="st0" d="M57.81,16.09c-0.01,7.22-5.88,13.1-13.05,13.07c-7.19-0.03-13-5.93-12.96-13.15  c0.04-7.16,5.82-12.94,12.97-12.95C51.99,3.04,57.81,8.86,57.81,16.09z M55.48,16.15c0.03-5.96-4.72-10.76-10.65-10.77  c-5.87-0.01-10.63,4.7-10.7,10.56c-0.06,5.96,4.64,10.8,10.57,10.88C50.57,26.91,55.44,22.08,55.48,16.15z"></path>	<path class="st0" d="M12.96,12.34c0,2.54,0.01,4.89,0,7.25c0,0.88,0.12,1.97-1.13,2.01c-1.44,0.05-1.18-1.16-1.19-2.06  c-0.02-2.59,0.03-5.18-0.02-7.77c-0.02-1.28,0.5-1.78,1.77-1.77c5.4,0.03,10.81-0.02,16.21,0.06c0.56,0.01,1.11,0.72,1.67,1.11  c-0.55,0.39-1.09,1.11-1.65,1.12C23.5,12.38,18.37,12.34,12.96,12.34z"></path>	<path class="st0" d="M70.94,12.34c-3.37,0-6.51-0.01-9.64,0c-0.87,0-1.81-0.03-1.84-1.14c-0.03-1.11,0.88-1.21,1.78-1.2  c3.42,0.01,6.83,0.03,10.25-0.01c1.26-0.01,1.81,0.5,1.8,1.76c-0.03,2.86,0.05,5.73-0.06,8.59c-0.02,0.56-0.75,1.08-1.15,1.62  c-0.37-0.56-1.04-1.1-1.07-1.68C70.87,17.73,70.94,15.14,70.94,12.34z"></path>	<path class="st0" d="M12.96,69.69c1.92,0,3.62,0,5.32,0c0.88,0,1.86,0.11,1.7,1.22c-0.07,0.44-1.03,1.02-1.62,1.06  c-1.98,0.13-3.97,0.01-5.95,0.06c-1.25,0.03-1.8-0.43-1.79-1.73c0.05-3.86-0.02-7.72,0.06-11.58c0.01-0.54,0.66-1.07,1.01-1.6  c0.42,0.53,1.2,1.05,1.21,1.59C13.01,62.29,12.96,65.87,12.96,69.69z"></path>	<path class="st0" d="M70.94,69.63c0-3.6,0-7.01,0-10.42c0-0.5-0.13-1.05,0.04-1.47c0.2-0.49,0.67-0.86,1.02-1.28  c0.42,0.42,1.15,0.81,1.19,1.27c0.16,1.47,0.07,2.97,0.07,4.46c0,2.59-0.06,5.19,0.02,7.78c0.05,1.61-0.59,2.23-2.15,2.08  c-0.66-0.06-1.36,0.11-1.97-0.06c-0.48-0.13-0.86-0.64-1.28-0.98c0.4-0.43,0.73-1,1.22-1.25C69.56,69.53,70.19,69.66,70.94,69.63z"></path>	<path class="st0" d="M11.04,34.26c-0.33,0-0.66,0-0.99,0c-2.45,0-2.53-0.08-2.53-2.47c0-2.47,0.08-2.56,2.63-2.56  c0.61,0,1.21,0,1.82,0c2.54,0,2.64,0.1,2.63,2.57C14.59,34.26,14.59,34.26,11.04,34.26z"></path>	<path class="st0" d="M15.32,39.53c-2.04,0-4.08-0.01-6.12,0c-0.86,0.01-1.72-0.18-1.53-1.19c0.08-0.46,0.95-1.08,1.47-1.09  c4.08-0.09,8.17-0.09,12.25,0c0.52,0.01,1.03,0.72,1.54,1.1c-0.55,0.39-1.08,1.08-1.65,1.12C19.3,39.61,17.3,39.53,15.32,39.53z"></path>	<path class="st0" d="M15.12,44.49c-1.99,0-3.98,0.08-5.96-0.05c-0.54-0.03-1.4-0.59-1.5-1.04c-0.21-0.99,0.63-1.24,1.49-1.24  c4.08,0,8.17-0.04,12.25,0.05c0.51,0.01,1.01,0.73,1.51,1.12c-0.5,0.38-0.99,1.07-1.52,1.1C19.32,44.57,17.22,44.49,15.12,44.49z"></path>	<path class="st0" d="M15.32,47.13c1.93,0,3.86,0.01,5.79,0c0.89-0.01,1.86,0.1,1.72,1.2c-0.05,0.44-1.05,1.07-1.62,1.09  c-3.97,0.1-7.95,0.09-11.92,0c-0.58-0.01-1.55-0.62-1.62-1.07c-0.18-1.12,0.8-1.22,1.69-1.21C11.34,47.13,13.33,47.13,15.32,47.13z  "></path>	<path class="st0" d="M80.04,39.43c-0.04,4.41-3.71,8.02-8.07,7.92c-4.33-0.09-7.88-3.68-7.89-7.98c-0.01-4.38,3.64-8,8.03-7.98  C76.55,31.4,80.08,34.99,80.04,39.43z M72.15,33.72c-3.12-0.04-5.72,2.49-5.74,5.6c-0.02,3.07,2.6,5.7,5.67,5.69  c3.05-0.01,5.55-2.48,5.61-5.55C77.76,36.31,75.31,33.77,72.15,33.72z"></path>	<path class="st0" d="M41.51,18.34c0.22,0.18,0.54,0.65,0.96,0.76c1.22,0.31,2.48,0.54,3.74,0.64c0.28,0.02,0.78-0.61,0.85-1  c0.05-0.27-0.38-0.81-0.72-0.95c-0.86-0.36-1.77-0.58-2.67-0.84c-2.14-0.61-3.4-1.74-3.47-3.3c-0.08-1.89,1.08-2.86,2.69-3.54  c0.37-0.16,0.49-0.82,0.79-1.2c0.31-0.4,0.78-1.08,1.04-1.02c0.46,0.11,0.83,0.66,1.21,1.06c0.43,0.45,0.8,0.97,1.26,1.4  c0.56,0.51,1.32,0.86,1.73,1.46c0.24,0.36-0.03,1.07-0.07,1.62c-0.54-0.05-1.3,0.11-1.59-0.18c-1.08-1.13-2.36-1.13-3.67-0.82  c-0.4,0.09-0.93,0.58-0.97,0.94c-0.03,0.32,0.47,0.86,0.85,1.02c0.91,0.38,1.89,0.58,2.83,0.88c1.59,0.52,3,1.29,3.14,3.19  c0.14,1.95-0.95,3.04-2.71,3.66c-0.34,0.12-0.51,0.71-0.79,1.04c-0.35,0.42-0.74,0.8-1.12,1.19c-0.39-0.38-0.79-0.75-1.16-1.14  c-0.4-0.42-0.74-0.92-1.17-1.3c-0.69-0.61-1.57-1.04-2.13-1.75C39.77,19.39,40.37,18.35,41.51,18.34z"></path></g></svg>