<svg xmlns="http://www.w3.org/2000/svg" xmlns:xlink="http://www.w3.org/1999/xlink" id="Layer_1" x="0px" y="0px" viewBox="0 0 30.55 28.35" style="enable-background:new 0 0 30.55 28.35;" xml:space="preserve"><style type="text/css">	.st0{fill:#FFFFFF;}</style><g>	<path class="st0" d="M29.79,0.5c0.04,0,0.08,0.01,0.12,0.01c0.19,0,0.38,0,0.58,0.01c0.02,0,0.04,0,0.06,0  c0.02,0.03,0,0.04-0.01,0.06c-0.1,0.12-0.21,0.23-0.31,0.35c-1.44,1.61-2.84,3.26-4.2,4.93c-0.9,1.12-1.79,2.25-2.66,3.4  c-1.38,1.83-2.72,3.69-4.01,5.6c-1.16,1.72-2.28,3.46-3.36,5.23c-1.1,1.81-2.16,3.64-3.17,5.51c-0.39,0.73-0.78,1.46-1.16,2.19  c-0.01,0.03-0.02,0.06-0.06,0.07c-0.02-0.03-0.03-0.06-0.04-0.09c-0.65-1.38-1.36-2.71-2.16-4.01c-0.93-1.52-1.97-2.97-3.12-4.33  c-1.23-1.46-2.58-2.8-4.05-4.01c-0.69-0.57-1.4-1.11-2.14-1.62c-0.03-0.02-0.07-0.04-0.1-0.08c0.03,0,0.05-0.01,0.07-0.01  c0.25,0,0.51-0.01,0.76-0.01c0.57-0.01,1.13-0.01,1.7-0.02c0.48,0,0.95,0.01,1.43,0.04c0.45,0.03,0.91,0.08,1.36,0.16  c0.91,0.17,1.74,0.52,2.5,1.04c0.46,0.32,0.88,0.67,1.28,1.05c0.51,0.48,0.98,1,1.44,1.52c0.28,0.33,0.56,0.67,0.84,1  c0.02,0.02,0.04,0.05,0.06,0.07c0.03-0.02,0.04-0.05,0.06-0.08c0.25-0.41,0.5-0.82,0.76-1.23c1.11-1.76,2.28-3.48,3.52-5.16  c0.92-1.25,1.89-2.47,2.88-3.67c0.96-1.15,1.96-2.28,2.99-3.37c0.69-0.73,1.38-1.45,2.09-2.16c0.38-0.38,0.77-0.76,1.19-1.11  c0.3-0.25,0.61-0.48,0.96-0.68c0.4-0.23,0.83-0.38,1.29-0.46c0.29-0.05,0.58-0.09,0.87-0.1c0.21-0.01,0.41-0.02,0.62-0.02  c0.03,0,0.07-0.01,0.1-0.01C29.1,0.5,29.44,0.5,29.79,0.5z"></path></g></svg>