<svg width="28" height="28" viewBox="0 0 28 28" fill="none" xmlns="http://www.w3.org/2000/svg">
<path d="M6.99789 12.4575C6.8782 12.4575 6.78117 12.5399 6.78117 12.6416V15.7334C6.78117 15.8351 6.8782 15.9175 6.99789 15.9175V16.1016C6.75851 16.1016 6.56445 15.9367 6.56445 15.7334V12.6416C6.56445 12.4383 6.75851 12.2734 6.99789 12.2734V12.4575Z" fill="#556068"/>
<path d="M6.43343 12.7047C6.31374 12.7047 6.21672 12.7753 6.21672 12.8624V15.5126C6.21672 15.5997 6.31374 15.6703 6.43343 15.6703V15.8281C6.19405 15.8281 6 15.6868 6 15.5126V12.8624C6 12.6882 6.19405 12.5469 6.43343 12.5469V12.7047Z" fill="#556068"/>
<path d="M14.0182 12.7047C14.1379 12.7047 14.2349 12.7753 14.2349 12.8624V15.5126C14.2349 15.5997 14.1379 15.6703 14.0182 15.6703V15.8281C14.2576 15.8281 14.4517 15.6868 14.4517 15.5126V12.8624C14.4517 12.6882 14.2576 12.5469 14.0182 12.5469V12.7047Z" fill="#556068"/>
<path d="M13.4531 15.9175C13.5728 15.9175 13.6698 15.8351 13.6698 15.7334V12.6416C13.6698 12.5399 13.5728 12.4575 13.4531 12.4575V12.2734C13.6925 12.2734 13.8866 12.4383 13.8866 12.6416V15.7334C13.8866 15.9367 13.6925 16.1016 13.4531 16.1016V15.9175Z" fill="#556068"/>
<path d="M8.88184 16.1617L10.5218 13.702L11.1568 14.6543L12.3395 12.8804L12.8255 13.6092V14.9785V16.1617H12.1618H11.0647H10.1517H8.88184Z" fill="#556068"/>
<path d="M9.41425 13.3672C9.41425 13.6752 9.15488 13.9375 8.81918 13.9375C8.48348 13.9375 8.22412 13.6752 8.22412 13.3672C8.22412 13.0592 8.48348 12.7969 8.81918 12.7969C9.15488 12.7969 9.41425 13.0592 9.41425 13.3672Z" fill="#556068" stroke="#556068" stroke-width="0.5"/>
<path fill-rule="evenodd" clip-rule="evenodd" d="M12.6095 12.2104H7.84261C7.72292 12.2104 7.6259 12.3046 7.6259 12.4207V15.9543C7.6259 16.0704 7.72292 16.1646 7.84261 16.1646H12.6095C12.7292 16.1646 12.8262 16.0704 12.8262 15.9543V12.4207C12.8262 12.3046 12.7292 12.2104 12.6095 12.2104ZM7.84261 12C7.60323 12 7.40918 12.1884 7.40918 12.4207V15.9543C7.40918 16.1866 7.60323 16.375 7.84261 16.375H12.6095C12.8489 16.375 13.0429 16.1866 13.0429 15.9543V12.4207C13.0429 12.1884 12.8489 12 12.6095 12H7.84261Z" fill="#556068"/>
<path d="M16.2998 16.0399H18.4125V16.2483H16.2998V16.0399Z" fill="#556068"/>
<path d="M16.2998 14.3333H23.0603V14.5416H16.2998V14.3333Z" fill="#556068"/>
<path d="M16.2998 15.1666H19.6801V15.3749H16.2998V15.1666Z" fill="#556068"/>
<path d="M16.2998 13.4999H23.0603V13.7083H16.2998V13.4999Z" fill="#556068"/>
<path fill-rule="evenodd" clip-rule="evenodd" d="M17.1449 12.4583C17.4949 12.4583 17.7787 12.1785 17.7787 11.8333C17.7787 11.4882 17.4949 11.2083 17.1449 11.2083C16.7948 11.2083 16.5111 11.4882 16.5111 11.8333C16.5111 12.1785 16.7948 12.4583 17.1449 12.4583ZM17.1449 12.6667C17.6116 12.6667 17.9899 12.2936 17.9899 11.8333C17.9899 11.3731 17.6116 11 17.1449 11C16.6782 11 16.2998 11.3731 16.2998 11.8333C16.2998 12.2936 16.6782 12.6667 17.1449 12.6667Z" fill="#556068"/>
<path fill-rule="evenodd" clip-rule="evenodd" d="M22.7211 7.67318H5.56036C5.12948 7.67318 4.78018 7.97457 4.78018 8.34636V19.6536C4.78018 20.0254 5.12948 20.3268 5.56036 20.3268H22.7211C23.152 20.3268 23.5013 20.0254 23.5013 19.6536V8.34636C23.5013 7.97457 23.152 7.67318 22.7211 7.67318ZM5.56036 7C4.6986 7 4 7.60279 4 8.34636V19.6536C4 20.3972 4.6986 21 5.56036 21H22.7211C23.5829 21 24.2815 20.3972 24.2815 19.6536V8.34636C24.2815 7.60279 23.5829 7 22.7211 7H5.56036Z" fill="#556068"/>
<path d="M15.6001 8.00107L15.539 20.2509L15.3378 20.2498L15.3989 7.99999L15.6001 8.00107Z" fill="#556068"/>
</svg>
