<svg width="28" height="28" viewBox="0 0 28 28" fill="none" xmlns="http://www.w3.org/2000/svg">
<path fill-rule="evenodd" clip-rule="evenodd" d="M22.4613 6.76935H5.5387C5.1138 6.76935 4.76935 7.1138 4.76935 7.5387V20.4613C4.76935 20.8862 5.1138 21.2306 5.5387 21.2306H22.4613C22.8862 21.2306 23.2306 20.8862 23.2306 20.4613V7.5387C23.2306 7.1138 22.8862 6.76935 22.4613 6.76935ZM5.5387 6C4.6889 6 4 6.6889 4 7.5387V20.4613C4 21.3111 4.6889 22 5.5387 22H22.4613C23.3111 22 24 21.3111 24 20.4613V7.5387C24 6.6889 23.3111 6 22.4613 6H5.5387Z" fill="#556068"/>
<path d="M26.5069 13.5002L25.5497 14.649C25.4739 14.7399 25.4862 14.875 25.5771 14.9508C25.6681 15.0266 25.8032 15.0143 25.879 14.9234L26.9506 13.6374C27.0168 13.558 27.0168 13.4425 26.9506 13.363L25.879 12.0771C25.8032 11.9862 25.6681 11.9739 25.5771 12.0497C25.4862 12.1255 25.4739 12.2606 25.5497 12.3515L26.5069 13.5002Z" fill="#556068"/>
<path d="M1.49306 13.5002L2.45032 12.3515C2.5261 12.2606 2.51381 12.1255 2.42288 12.0497C2.33195 11.9739 2.19681 11.9862 2.12103 12.0771L1.04943 13.363C0.983198 13.4425 0.983198 13.558 1.04943 13.6374L2.12103 14.9234C2.19681 15.0143 2.33195 15.0266 2.42288 14.9508C2.51381 14.875 2.5261 14.7399 2.45032 14.649L1.49306 13.5002Z" fill="#556068"/>
<path d="M6 11H22V11.5H6V11Z" fill="#556068"/>
<path d="M6 13H14V13.5H6V13Z" fill="#556068"/>
<path d="M6 9H22V9.5H6V9Z" fill="#556068"/>
<path d="M11 16.5H17V17H11V16.5Z" fill="#556068"/>
<path d="M11 18.5H15V19H11V18.5Z" fill="#556068"/>
<path fill-rule="evenodd" clip-rule="evenodd" d="M8 19C8.82843 19 9.5 18.3284 9.5 17.5C9.5 16.6716 8.82843 16 8 16C7.17157 16 6.5 16.6716 6.5 17.5C6.5 18.3284 7.17157 19 8 19ZM8 19.5C9.10457 19.5 10 18.6046 10 17.5C10 16.3954 9.10457 15.5 8 15.5C6.89543 15.5 6 16.3954 6 17.5C6 18.6046 6.89543 19.5 8 19.5Z" fill="#556068"/>
</svg>
