<svg width="28" height="28" viewBox="0 0 28 28" fill="none" xmlns="http://www.w3.org/2000/svg">
<rect x="2.5" y="4.5" width="23" height="19" rx="1.0387" stroke="#556068"/>
<path d="M14 11.5C14 11.2239 14.2239 11 14.5 11H18.5C18.7761 11 19 11.2239 19 11.5C19 11.7761 18.7761 12 18.5 12H14.5C14.2239 12 14 11.7761 14 11.5Z" fill="#556068"/>
<path d="M14 13.5C14 13.2239 14.2239 13 14.5 13H17.5C17.7761 13 18 13.2239 18 13.5C18 13.7761 17.7761 14 17.5 14H14.5C14.2239 14 14 13.7761 14 13.5Z" fill="#556068"/>
<path d="M14 9.5C14 9.22386 14.2239 9 14.5 9H21.5C21.7761 9 22 9.22386 22 9.5C22 9.77614 21.7761 10 21.5 10H14.5C14.2239 10 14 9.77614 14 9.5Z" fill="#556068"/>
<rect x="5.5" y="8.5" width="6" height="6" rx="0.5" stroke="#556068"/>
<path d="M6.25 19L5.75 19.5L6.25 20" stroke="#556068" stroke-width="0.5" stroke-linecap="round" stroke-linejoin="round"/>
<rect x="9.75" y="18.75" width="1.5" height="1.5" rx="0.25" stroke="#556068" stroke-width="0.5"/>
<path d="M13.25 18.5C13.25 18.3619 13.3619 18.25 13.5 18.25H15.5C15.6381 18.25 15.75 18.3619 15.75 18.5V20.5C15.75 20.6381 15.6381 20.75 15.5 20.75H13.5C13.3619 20.75 13.25 20.6381 13.25 20.5V18.5Z" stroke="#556068" stroke-width="0.5"/>
<rect x="17.75" y="18.75" width="1.5" height="1.5" rx="0.25" stroke="#556068" stroke-width="0.5"/>
<path d="M22.75 19L23.25 19.5L22.75 20" stroke="#556068" stroke-width="0.5" stroke-linecap="round" stroke-linejoin="round"/>
</svg>
