<svg width="28" height="28" viewBox="0 0 28 28" fill="none" xmlns="http://www.w3.org/2000/svg">
<rect x="1.385" y="5.385" width="7.23" height="13.23" rx="1.1537" stroke="#556068" stroke-width="0.77"/>
<rect x="3" y="14.5" width="4" height="0.5" fill="#556068"/>
<rect x="4" y="16.5" width="2" height="0.5" fill="#556068"/>
<rect x="3" y="12.5" width="4" height="0.5" fill="#556068"/>
<circle cx="5" cy="9" r="1.75" stroke="#556068" stroke-width="0.5"/>
<rect x="10.385" y="5.385" width="7.23" height="13.23" rx="1.1537" stroke="#556068" stroke-width="0.77"/>
<rect x="12" y="14.5" width="4" height="0.5" fill="#556068"/>
<rect x="13" y="16.5" width="2" height="0.5" fill="#556068"/>
<rect x="12" y="12.5" width="4" height="0.5" fill="#556068"/>
<circle cx="14" cy="9" r="1.75" stroke="#556068" stroke-width="0.5"/>
<rect x="19.385" y="5.385" width="7.23" height="13.23" rx="1.1537" stroke="#556068" stroke-width="0.77"/>
<rect x="21" y="14.5" width="4" height="0.5" fill="#556068"/>
<rect x="22" y="16.5" width="2" height="0.5" fill="#556068"/>
<rect x="21" y="12.5" width="4" height="0.5" fill="#556068"/>
<circle cx="23" cy="9" r="1.75" stroke="#556068" stroke-width="0.5"/>
<circle cx="9.75024" cy="22.5002" r="1" fill="#556068"/>
<circle cx="13.7502" cy="22.5002" r="0.8" stroke="#556068" stroke-width="0.4"/>
<circle cx="17.7502" cy="22.5002" r="0.8" stroke="#556068" stroke-width="0.4"/>
<path d="M3.7433 22.5002L4.70056 21.3515C4.77634 21.2606 4.76405 21.1255 4.67312 21.0497C4.58219 20.9739 4.44705 20.9862 4.37127 21.0771L3.29968 22.363C3.23344 22.4425 3.23344 22.558 3.29968 22.6374L4.37127 23.9234C4.44705 24.0143 4.58219 24.0266 4.67312 23.9508C4.76405 23.875 4.77634 23.7399 4.70056 23.649L3.7433 22.5002Z" fill="#556068"/>
<path d="M23.7572 22.5002L22.7999 21.3515C22.7241 21.2606 22.7364 21.1255 22.8274 21.0497C22.9183 20.9739 23.0534 20.9862 23.1292 21.0771L24.2008 22.363C24.267 22.4425 24.267 22.558 24.2008 22.6374L23.1292 23.9234C23.0534 24.0143 22.9183 24.0266 22.8274 23.9508C22.7364 23.875 22.7241 23.7399 22.7999 23.649L23.7572 22.5002Z" fill="#556068"/>
</svg>
