<svg width="28" height="28" viewBox="0 0 28 28" fill="none" xmlns="http://www.w3.org/2000/svg">
<rect x="3.5" y="4.5" width="21" height="19" rx="1.0387" stroke="#556068"/>
<rect x="6" y="14" width="8" height="1" rx="0.5" fill="#556068"/>
<rect x="6" y="17" width="6" height="1" rx="0.5" fill="#556068"/>
<rect x="6" y="11" width="8" height="1" rx="0.5" fill="#556068"/>
<path d="M19.2505 14.6668V17.7636M19.7069 11.1255L22.0069 12.4866C22.1478 12.57 22.2648 12.6904 22.3463 12.8358C22.4277 12.9811 22.4706 13.1462 22.4706 13.3142V15.5429C22.4706 15.711 22.4277 15.876 22.3463 16.0214C22.2648 16.1667 22.1478 16.2872 22.0069 16.3705L19.7069 17.7317C19.5679 17.8139 19.4106 17.8571 19.2505 17.8571C19.0905 17.8571 18.9332 17.8139 18.7942 17.7317L16.4942 16.3705C16.3533 16.2872 16.2362 16.1667 16.1548 16.0214C16.0734 15.876 16.0305 15.711 16.0305 15.5429V13.3142C16.0305 13.1462 16.0734 12.9811 16.1548 12.8358C16.2362 12.6904 16.3533 12.57 16.4942 12.4866L18.7942 11.1255C18.9332 11.0432 19.0905 11 19.2505 11C19.4106 11 19.5679 11.0432 19.7069 11.1255Z" stroke="#556068" stroke-width="0.8" stroke-linecap="round" stroke-linejoin="round"/>
<path d="M16.2605 12.9993L18.8144 14.4238C18.9485 14.4985 19.0983 14.5376 19.2505 14.5376C19.4027 14.5376 19.5526 14.4985 19.6866 14.4238L22.2405 12.9993" stroke="#556068" stroke-width="0.8" stroke-linecap="round" stroke-linejoin="round"/>
</svg>
