<svg width="28" height="29" viewBox="0 0 28 29" fill="none" xmlns="http://www.w3.org/2000/svg">
<path d="M7.59961 14.5H14.7996V14.9062H7.59961V14.5Z" fill="#556068"/>
<path d="M7.59961 16.125H13.9996V16.5312H7.59961V16.125Z" fill="#556068"/>
<path d="M7.59961 11.25H17.1996V11.6562H7.59961V11.25Z" fill="#556068"/>
<path d="M7.59961 12.875H18.7996V13.2812H7.59961V12.875Z" fill="#556068"/>
<path d="M4.82959 9.35946C4.48967 9.35946 4.21411 9.60434 4.21411 9.90642V19.0936C4.21411 19.3957 4.48967 19.6405 4.82959 19.6405V20.1875C4.14975 20.1875 3.59863 19.6977 3.59863 19.0936V9.90642C3.59863 9.30226 4.14975 8.8125 4.82959 8.8125V9.35946Z" fill="#556068"/>
<path d="M3.23096 10.0938C2.89104 10.0938 2.61548 10.3037 2.61548 10.5626V18.4374C2.61548 18.6963 2.89104 18.9062 3.23096 18.9062V19.375C2.55112 19.375 2 18.9552 2 18.4374V10.5626C2 10.0448 2.55112 9.625 3.23096 9.625V10.0938Z" fill="#556068"/>
<path d="M24.769 10.0938C25.109 10.0938 25.3845 10.3037 25.3845 10.5626V18.4374C25.3845 18.6963 25.109 18.9062 24.769 18.9062V19.375C25.4489 19.375 26 18.9552 26 18.4374V10.5626C26 10.0448 25.4489 9.625 24.769 9.625V10.0938Z" fill="#556068"/>
<path d="M23.1689 19.6405C23.5089 19.6405 23.7844 19.3957 23.7844 19.0936V9.90642C23.7844 9.60434 23.5089 9.35946 23.1689 9.35946V8.8125C23.8488 8.8125 24.3999 9.30226 24.3999 9.90642V19.0936C24.3999 19.6977 23.8488 20.1875 23.1689 20.1875V19.6405Z" fill="#556068"/>
<path d="M12.9971 20.3659L16.4903 15.9078L17.8428 17.6338L20.362 14.4188L21.3971 15.7396V18.2215V20.3659H19.9835H17.6467H15.702H12.9971Z" fill="#556068"/>
<path fill-rule="evenodd" clip-rule="evenodd" d="M20.772 8.6251H7.23389C6.89397 8.6251 6.61841 8.90496 6.61841 9.25019V19.7498C6.61841 20.095 6.89397 20.3749 7.23389 20.3749H20.772C21.1119 20.3749 21.3875 20.095 21.3875 19.7498V9.25019C21.3875 8.90496 21.1119 8.6251 20.772 8.6251ZM7.23389 8C6.55405 8 6.00293 8.55973 6.00293 9.25019V19.7498C6.00293 20.4403 6.55405 21 7.23389 21H20.772C21.4518 21 22.0029 20.4403 22.0029 19.7498V9.25019C22.0029 8.55973 21.4518 8 20.772 8H7.23389Z" fill="#556068"/>
</svg>
