<svg width="28" height="28" viewBox="0 0 28 28" fill="none" xmlns="http://www.w3.org/2000/svg">
<path d="M14.377 14.8338V25.6726M15.9741 2.43915L24.0242 7.20322C24.5173 7.49494 24.9271 7.91651 25.2121 8.42519C25.4971 8.93387 25.6472 9.51156 25.6471 10.0997V17.9003C25.6472 18.4884 25.4971 19.0661 25.2121 19.5748C24.9271 20.0835 24.5173 20.5051 24.0242 20.7968L15.9741 25.5609C15.4877 25.8486 14.9372 26 14.377 26C13.8168 26 13.2663 25.8486 12.7799 25.5609L4.72982 20.7968C4.23675 20.5051 3.82693 20.0835 3.54191 19.5748C3.2569 19.0661 3.10683 18.4884 3.10693 17.9003V10.0997C3.10683 9.51156 3.2569 8.93387 3.54191 8.42519C3.82693 7.91651 4.23675 7.49494 4.72982 7.20322L12.7799 2.43915C13.2663 2.15137 13.8168 2 14.377 2C14.9372 2 15.4877 2.15137 15.9741 2.43915Z" stroke="#556068" stroke-linecap="round" stroke-linejoin="round"/>
<path d="M3.91211 8.99744L12.8509 13.9833C13.32 14.2448 13.8444 14.3817 14.3772 14.3817C14.9099 14.3817 15.4344 14.2448 15.9035 13.9833L24.8422 8.99744" stroke="#556068" stroke-linecap="round" stroke-linejoin="round"/>
<path d="M6.21045 19L10.4449 21.5" stroke="#556068" stroke-linecap="round"/>
<path d="M18.0726 21.3004L22.4174 19" stroke="#556068" stroke-linecap="round"/>
<path d="M3.21045 14.5001L14.0059 20.6357" stroke="#556068" stroke-linecap="round"/>
<path d="M14.6933 20.6451L25.314 15.0001" stroke="#556068" stroke-linecap="round"/>
</svg>
