<svg width="28" height="28" viewBox="0 0 28 28" fill="none" xmlns="http://www.w3.org/2000/svg">
<path fill-rule="evenodd" clip-rule="evenodd" d="M22.4613 6.76935H5.5387C5.1138 6.76935 4.76935 7.1138 4.76935 7.5387V20.4613C4.76935 20.8862 5.1138 21.2306 5.5387 21.2306H22.4613C22.8862 21.2306 23.2306 20.8862 23.2306 20.4613V7.5387C23.2306 7.1138 22.8862 6.76935 22.4613 6.76935ZM5.5387 6C4.6889 6 4 6.6889 4 7.5387V20.4613C4 21.3111 4.6889 22 5.5387 22H22.4613C23.3111 22 24 21.3111 24 20.4613V7.5387C24 6.6889 23.3111 6 22.4613 6H5.5387Z" fill="#556068"/>
<path d="M26.5069 13.5002L25.5497 14.649C25.4739 14.7399 25.4862 14.875 25.5771 14.9508C25.6681 15.0266 25.8032 15.0143 25.879 14.9234L26.9506 13.6374C27.0168 13.558 27.0168 13.4425 26.9506 13.363L25.879 12.0771C25.8032 11.9862 25.6681 11.9739 25.5771 12.0497C25.4862 12.1255 25.4739 12.2606 25.5497 12.3515L26.5069 13.5002Z" fill="#556068"/>
<path d="M1.49306 13.5002L2.45032 12.3515C2.5261 12.2606 2.51381 12.1255 2.42288 12.0497C2.33195 11.9739 2.19681 11.9862 2.12103 12.0771L1.04943 13.363C0.983198 13.4425 0.983198 13.558 1.04943 13.6374L2.12103 14.9234C2.19681 15.0143 2.33195 15.0266 2.42288 14.9508C2.51381 14.875 2.5261 14.7399 2.45032 14.649L1.49306 13.5002Z" fill="#556068"/>
<path d="M11 13H17V13.5H11V13Z" fill="#556068"/>
<path d="M12 14.5H16V15H12V14.5Z" fill="#556068"/>
<path d="M6 17.8H22V18.3H6V17.8Z" fill="#556068"/>
<path d="M6 19.3H14V19.8H6V19.3Z" fill="#556068"/>
<path d="M6 16.3H22V16.8H6V16.3Z" fill="#556068"/>
<path fill-rule="evenodd" clip-rule="evenodd" d="M14 11.5C14.8284 11.5 15.5 10.8284 15.5 10C15.5 9.17157 14.8284 8.5 14 8.5C13.1716 8.5 12.5 9.17157 12.5 10C12.5 10.8284 13.1716 11.5 14 11.5ZM14 12C15.1046 12 16 11.1046 16 10C16 8.89543 15.1046 8 14 8C12.8954 8 12 8.89543 12 10C12 11.1046 12.8954 12 14 12Z" fill="#556068"/>
</svg>
