<svg width="30" height="30" viewBox="0 0 30 30" fill="none" xmlns="http://www.w3.org/2000/svg">
<g filter="">
<rect x="2" y="5" width="26" height="18" rx="6" fill="#6821fb"/>
<path d="M9.5 25L7.33494 22L11.6651 22L9.5 25Z" fill="#6821fb"/>
</g>
<path d="M5.16977 16.7135C4.98121 16.4575 5.00019 16.1287 5.00079 16.125V15.125C5.00079 15.0918 5.01132 15.0601 5.03006 15.0366C5.0488 15.0132 5.07422 15 5.10072 15H5.70027C5.81049 15 5.90012 15.1121 5.90012 15.25V16.125C5.90012 16.1582 5.88959 16.1899 5.87085 16.2134C5.85211 16.2368 5.8267 16.25 5.8002 16.25H5.49263C5.49474 16.3118 5.5095 16.3719 5.53549 16.4245C5.58626 16.5246 5.68188 16.593 5.81988 16.6275L5.90012 16.6475V17H5.8002C5.5221 17 5.30996 16.9036 5.16977 16.7135ZM6.26965 16.7135C6.08099 16.4575 6.10007 16.1287 6.10067 16.125V15.125C6.10067 15.0918 6.1112 15.0601 6.12994 15.0366C6.14868 15.0132 6.1741 15 6.2006 15H6.80015C6.91037 15 7 15.1121 7 15.25V16.125C7 16.1582 6.98947 16.1899 6.97073 16.2134C6.95199 16.2368 6.92658 16.25 6.90007 16.25H6.5925C6.59462 16.3118 6.60938 16.3719 6.63537 16.4245C6.68613 16.5246 6.78176 16.593 6.91976 16.6275L7 16.6475V17H6.90007C6.62198 17 6.40984 16.9036 6.26965 16.7135Z" fill="#6821FB"/>
<path d="M24.8302 19.7135C25.0188 19.4575 24.9998 19.1287 24.9992 19.125V18.125C24.9992 18.0918 24.9887 18.0601 24.9699 18.0366C24.9512 18.0132 24.9258 18 24.8993 18H24.2997C24.1895 18 24.0999 18.1121 24.0999 18.25V19.125C24.0999 19.1582 24.1104 19.1899 24.1291 19.2134C24.1479 19.2368 24.1733 19.25 24.1998 19.25H24.5074C24.5053 19.3118 24.4905 19.3719 24.4645 19.4245C24.4137 19.5246 24.3181 19.593 24.1801 19.6275L24.0999 19.6475V20H24.1998C24.4779 20 24.69 19.9036 24.8302 19.7135ZM23.7304 19.7135C23.919 19.4575 23.8999 19.1287 23.8993 19.125V18.125C23.8993 18.0918 23.8888 18.0601 23.8701 18.0366C23.8513 18.0132 23.8259 18 23.7994 18H23.1999C23.0896 18 23 18.1121 23 18.25V19.125C23 19.1582 23.0105 19.1899 23.0293 19.2134C23.048 19.2368 23.0734 19.25 23.0999 19.25H23.4075C23.4054 19.3118 23.3906 19.3719 23.3646 19.4245C23.3139 19.5246 23.2182 19.593 23.0802 19.6275L23 19.6475V20H23.0999C23.378 20 23.5902 19.9036 23.7304 19.7135Z" fill="#6821FB"/>
<g clip-path="url(#clip0_1_3)">
<path d="M17.23 9.06896L15.7423 8.85275L15.0773 7.50451C15.0591 7.46759 15.0292 7.43771 14.9923 7.41955C14.8997 7.37384 14.7872 7.41193 14.7409 7.50451L14.0759 8.85275L12.5882 9.06896C12.5472 9.07482 12.5097 9.09416 12.481 9.12345C12.4462 9.15913 12.4271 9.20713 12.4278 9.2569C12.4284 9.30667 12.4488 9.35414 12.4845 9.38888L13.5608 10.4383L13.3065 11.9201C13.3006 11.9546 13.3044 11.9901 13.3176 12.0225C13.3307 12.0549 13.3527 12.083 13.381 12.1035C13.4093 12.1241 13.4428 12.1363 13.4777 12.1388C13.5126 12.1413 13.5475 12.1339 13.5784 12.1176L14.9091 11.418L16.2398 12.1176C16.2761 12.1369 16.3183 12.1434 16.3587 12.1363C16.4607 12.1188 16.5292 12.0221 16.5116 11.9201L16.2573 10.4383L17.3337 9.38888C17.363 9.36017 17.3823 9.32267 17.3882 9.28166C17.404 9.17912 17.3325 9.0842 17.23 9.06896V9.06896Z" fill="#FFAC30"/>
</g>
<g clip-path="url(#clip1_1_3)">
<path d="M21.1948 10.0705L20.3269 9.94442L19.939 9.15795C19.9284 9.13641 19.911 9.11898 19.8894 9.10839C19.8354 9.08173 19.7698 9.10394 19.7428 9.15795L19.3549 9.94442L18.487 10.0705C18.4631 10.074 18.4412 10.0852 18.4245 10.1023C18.4042 10.1231 18.3931 10.1511 18.3935 10.1802C18.3939 10.2092 18.4058 10.2369 18.4265 10.2572L19.0544 10.8693L18.9061 11.7337C18.9026 11.7538 18.9048 11.7745 18.9125 11.7934C18.9202 11.8123 18.933 11.8287 18.9495 11.8407C18.966 11.8527 18.9856 11.8598 19.0059 11.8613C19.0263 11.8627 19.0466 11.8584 19.0647 11.8489L19.8409 11.4408L20.6171 11.8489C20.6383 11.8602 20.6629 11.864 20.6865 11.8599C20.746 11.8496 20.786 11.7932 20.7757 11.7337L20.6274 10.8693L21.2553 10.2572C21.2723 10.2404 21.2836 10.2185 21.287 10.1946C21.2963 10.1348 21.2546 10.0794 21.1948 10.0705V10.0705Z" fill="#FFAC30"/>
</g>
<g clip-path="url(#clip2_1_3)">
<path d="M8.10385 10.0705L7.23603 9.94442L6.84809 9.15795C6.83749 9.13641 6.82006 9.11898 6.79853 9.10839C6.74452 9.08173 6.6789 9.10394 6.65189 9.15795L6.26395 9.94442L5.39613 10.0705C5.3722 10.074 5.35033 10.0852 5.33358 10.1023C5.31333 10.1231 5.30218 10.1511 5.30256 10.1802C5.30295 10.2092 5.31484 10.2369 5.33563 10.2572L5.96351 10.8693L5.81517 11.7337C5.8117 11.7538 5.81392 11.7745 5.8216 11.7934C5.82927 11.8123 5.84209 11.8287 5.85861 11.8407C5.87512 11.8527 5.89466 11.8598 5.91501 11.8613C5.93537 11.8627 5.95572 11.8584 5.97377 11.8489L6.74999 11.4408L7.52621 11.8489C7.5474 11.8602 7.57201 11.864 7.5956 11.8599C7.65507 11.8496 7.69506 11.7932 7.68481 11.7337L7.53647 10.8693L8.16435 10.2572C8.18144 10.2404 8.19272 10.2185 8.19614 10.1946C8.20536 10.1348 8.16366 10.0794 8.10385 10.0705V10.0705Z" fill="#FFAC30"/>
</g>
<g clip-path="url(#clip3_1_3)">
<path d="M24.6493 10.0705L23.7815 9.94442L23.3935 9.15795C23.3829 9.13641 23.3655 9.11898 23.344 9.10839C23.29 9.08173 23.2244 9.10394 23.1973 9.15795L22.8094 9.94442L21.9416 10.0705C21.9177 10.074 21.8958 10.0852 21.879 10.1023C21.8588 10.1231 21.8476 10.1511 21.848 10.1802C21.8484 10.2092 21.8603 10.2369 21.8811 10.2572L22.509 10.8693L22.3606 11.7337C22.3572 11.7538 22.3594 11.7745 22.3671 11.7934C22.3747 11.8123 22.3876 11.8287 22.4041 11.8407C22.4206 11.8527 22.4401 11.8598 22.4605 11.8613C22.4808 11.8627 22.5012 11.8584 22.5192 11.8489L23.2954 11.4408L24.0717 11.8489C24.0929 11.8602 24.1175 11.864 24.1411 11.8599C24.2005 11.8496 24.2405 11.7932 24.2303 11.7337L24.0819 10.8693L24.7098 10.2572C24.7269 10.2404 24.7382 10.2185 24.7416 10.1946C24.7508 10.1348 24.7091 10.0794 24.6493 10.0705V10.0705Z" fill="#FFAC30"/>
</g>
<g clip-path="url(#clip4_1_3)">
<path d="M11.5584 10.0705L10.6906 9.94442L10.3026 9.15795C10.292 9.13641 10.2746 9.11898 10.2531 9.10839C10.1991 9.08173 10.1335 9.10394 10.1065 9.15795L9.71851 9.94442L8.85069 10.0705C8.82676 10.074 8.80489 10.0852 8.78814 10.1023C8.76789 10.1231 8.75674 10.1511 8.75712 10.1802C8.7575 10.2092 8.7694 10.2369 8.79019 10.2572L9.41807 10.8693L9.26973 11.7337C9.26625 11.7538 9.26848 11.7745 9.27616 11.7934C9.28383 11.8123 9.29665 11.8287 9.31316 11.8407C9.32968 11.8527 9.34922 11.8598 9.36957 11.8613C9.38993 11.8627 9.41028 11.8584 9.42833 11.8489L10.2045 11.4408L10.9808 11.8489C11.002 11.8602 11.0266 11.864 11.0502 11.8599C11.1096 11.8496 11.1496 11.7932 11.1394 11.7337L10.991 10.8693L11.6189 10.2572C11.636 10.2404 11.6473 10.2185 11.6507 10.1946C11.6599 10.1348 11.6182 10.0794 11.5584 10.0705V10.0705Z" fill="#FFAC30"/>
</g>
<rect x="8" y="15" width="5" height="1" rx="0.5" fill="white"/>
<rect x="14" y="15" width="10" height="1" rx="0.5" fill="white"/>
<rect x="8" y="17" width="7" height="1" rx="0.5" fill="white"/>
<rect x="16" y="17" width="4" height="1" rx="0.5" fill="white"/>
<rect x="8" y="19" width="14" height="1" rx="0.5" fill="white"/>
<defs>
<filter id="filter0_d_1_3" x="0" y="4" width="30" height="24" filterUnits="userSpaceOnUse" color-interpolation-filters="sRGB">
<feFlood flood-opacity="0" result="BackgroundImageFix"/>
<feColorMatrix in="SourceAlpha" type="matrix" values="0 0 0 0 0 0 0 0 0 0 0 0 0 0 0 0 0 0 127 0" result="hardAlpha"/>
<feOffset dy="1"/>
<feGaussianBlur stdDeviation="1"/>
<feComposite in2="hardAlpha" operator="out"/>
<feColorMatrix type="matrix" values="0 0 0 0 0 0 0 0 0 0 0 0 0 0 0 0 0 0 0.25 0"/>
<feBlend mode="normal" in2="BackgroundImageFix" result="effect1_dropShadow_1_3"/>
<feBlend mode="normal" in="SourceGraphic" in2="effect1_dropShadow_1_3" result="shape"/>
</filter>
<linearGradient id="paint0_linear_1_3" x1="8" y1="30" x2="27" y2="-4.88758e-07" gradientUnits="userSpaceOnUse">
<stop stop-color="#4811FF"/>
<stop offset="1" stop-color="#6821FB"/>
</linearGradient>
<clipPath id="clip0_1_3">
<rect width="6" height="6" fill="white" transform="translate(11.9091 7)"/>
</clipPath>
<clipPath id="clip1_1_3">
<rect width="3.5" height="3.5" fill="white" transform="translate(18.0909 8.86365)"/>
</clipPath>
<clipPath id="clip2_1_3">
<rect width="3.5" height="3.5" fill="white" transform="translate(5 8.86365)"/>
</clipPath>
<clipPath id="clip3_1_3">
<rect width="3.5" height="3.5" fill="white" transform="translate(21.5454 8.86365)"/>
</clipPath>
<clipPath id="clip4_1_3">
<rect width="3.5" height="3.5" fill="white" transform="translate(8.45456 8.86365)"/>
</clipPath>
</defs>
</svg>
