<!DOCTYPE svg PUBLIC "-//W3C//DTD SVG 1.1//EN" "http://www.w3.org/Graphics/SVG/1.1/DTD/svg11.dtd">
<!-- Uploaded to: SVG Repo, www.svgrepo.com, Transformed by: SVG Repo Mixer Tools -->
<svg fill="#3c434a" width="800px" height="800px" viewBox="0 0 32 32" version="1.1" xmlns="http://www.w3.org/2000/svg" stroke="#3c434a">
<g id="SVGRepo_bgCarrier" stroke-width="0"/>
<g id="SVGRepo_iconCarrier"> <title>skype</title> <path d="M29.87 18.491l-0.036 0.169-0.055-0.3c0.019 0.056 0.055 0.092 0.074 0.15 0.144-0.771 0.226-1.658 0.226-2.564v-0c0-0 0-0 0-0.001 0-3.913-1.588-7.455-4.155-10.016l-0-0c-1.258-1.254-2.748-2.276-4.4-2.996l-0.093-0.036c-1.544-0.734-3.355-1.163-5.267-1.163-0.050 0-0.1 0-0.149 0.001l0.008-0c-0.948 0.001-1.873 0.093-2.769 0.27l0.091-0.015 0.149 0.075-0.299-0.041 0.149-0.031c-1.136-0.613-2.485-0.973-3.919-0.973-4.628 0-8.38 3.752-8.38 8.38 0 1.494 0.391 2.897 1.076 4.112l-0.022-0.042 0.025-0.155 0.051 0.299-0.075-0.144c-0.137 0.734-0.215 1.58-0.215 2.443v0c0 0.005 0 0.010 0 0.015 0 1.986 0.406 3.878 1.14 5.596l-0.035-0.093c0.737 1.758 1.762 3.256 3.031 4.509l0.002 0.002c1.255 1.265 2.746 2.295 4.401 3.016l0.091 0.035c1.618 0.709 3.503 1.122 5.485 1.122 0.88 0 1.741-0.081 2.576-0.237l-0.086 0.013-0.149-0.077 0.3 0.057-0.169 0.037c1.184 0.682 2.604 1.084 4.118 1.084 4.62 0 8.365-3.745 8.365-8.365 0-0.006 0-0.013-0-0.019v0.001c-0.006-1.499-0.4-2.905-1.088-4.124l0.022 0.042zM16.086 24.59c-5.027 0-7.273-2.473-7.273-4.329-0-0.013-0.001-0.027-0.001-0.042 0-0.872 0.707-1.58 1.58-1.58 0.031 0 0.061 0.001 0.091 0.003l-0.004-0c2.153 0 1.591 3.095 5.607 3.095 2.051 0 3.187-1.118 3.187-2.263 0-0.689-0.336-1.45-1.692-1.786l-4.469-1.118c-3.599-0.905-4.253-2.857-4.253-4.687 0-3.808 3.575-5.237 6.934-5.237 3.088 0 6.739 1.716 6.739 3.998-0.048 0.871-0.765 1.559-1.644 1.559-0.061 0-0.12-0.003-0.179-0.010l0.007 0.001c-1.836 0-1.497-2.546-5.204-2.546-1.836 0-2.864 0.83-2.864 2.021s1.441 1.572 2.695 1.858l3.295 0.734c3.613 0.811 4.529 2.932 4.529 4.929 0 3.094-2.377 5.403-7.15 5.403z"/> </g>
</svg>